<svg width="500" height="500" viewBox="0 0 500 500" fill="none" xmlns="http://www.w3.org/2000/svg">
<g clip-path="url(#clip0_616_1145)">
<rect x="11.5" y="11.5" width="477" height="477" rx="110.5" fill="#252A97" fill-opacity="0.2" stroke="#252A97" stroke-width="23"/>
<path fill-rule="evenodd" clip-rule="evenodd" d="M338.374 274.471L304.81 216.929L296.208 266.714C295.932 268.34 295.795 269.987 295.8 271.637C295.802 273.273 295.946 274.905 296.23 276.517C296.539 278.12 296.978 279.695 297.541 281.228C298.121 282.794 298.84 284.306 299.692 285.746C303.501 292.279 309.772 297.047 317.126 299.001C324.48 300.955 332.316 299.936 338.912 296.167L363.596 282.059L399.161 343.138C399.712 344.061 400.002 345.114 400 346.186C399.996 347.262 399.708 348.317 399.165 349.249C398.622 350.18 397.843 350.953 396.904 351.493C395.965 352.015 394.905 352.287 393.829 352.281C393.829 352.281 330.569 352.281 313.625 352.281V334.316H373.165L356.995 306.61L347.922 311.81C342.629 314.855 336.784 316.84 330.72 317.65C318.374 319.255 305.892 315.936 296.015 308.422C291.138 304.709 287.047 300.081 283.974 294.803C282.629 292.491 281.492 290.066 280.576 287.557C279.637 285.03 278.917 282.427 278.426 279.778C277.494 274.476 277.494 269.054 278.426 263.752L295.37 164.843L354.501 266.352L338.783 275.345L338.267 274.471H338.374ZM215.188 182.51L215.682 181.637L199.964 172.643L140.833 274.152L235.68 239.413C240.778 237.545 245.513 234.82 249.677 231.358C251.75 229.61 253.671 227.692 255.419 225.625C257.148 223.58 258.695 221.391 260.041 219.081C263.118 213.795 265.113 207.96 265.913 201.909C266.714 195.857 266.304 189.71 264.706 183.816C263.109 177.922 260.355 172.398 256.604 167.559C252.852 162.72 248.175 158.662 242.84 155.614L233.766 150.436L249.935 122.73L279.695 173.879L295.391 164.907C286.919 150.35 255.332 96.0902 255.268 96.0476C254.759 95.1293 254.019 94.358 253.118 93.8099C252.174 93.2792 251.107 93.0002 250.022 93C248.934 93.0007 247.865 93.2875 246.925 93.8312C246.037 94.3475 245.296 95.0813 244.775 95.9624L209.081 157.063L233.744 171.193C238.657 174.022 242.618 178.224 245.131 183.274C247.644 188.324 248.598 193.996 247.871 199.581C247.363 203.282 246.137 206.85 244.259 210.088C243.414 211.535 242.45 212.91 241.378 214.201C240.328 215.45 239.169 216.606 237.916 217.654C236.651 218.71 235.299 219.658 233.873 220.488C232.434 221.328 230.923 222.041 229.358 222.619L181.623 240.117L215.188 182.574V182.51ZM196.459 334.187H195.384V352.196H313.647L235.873 288.132C233.789 286.411 231.558 284.871 229.207 283.529C224.481 280.869 219.333 279.025 213.984 278.073C211.328 277.619 208.637 277.391 205.942 277.391C199.786 277.386 193.689 278.584 188 280.917C182.311 283.25 177.143 286.672 172.791 290.988C168.439 295.304 164.989 300.428 162.637 306.066C160.286 311.706 159.08 317.749 159.088 323.851V334.316H126.835L156.616 283.166L140.919 274.195C132.447 288.729 100.817 342.968 100.817 343.032C100.283 343.961 100.001 345.011 100 346.08C100.008 347.155 100.289 348.21 100.817 349.149C101.366 350.065 102.147 350.825 103.082 351.352C104.017 351.878 105.074 352.155 106.15 352.153H177.237V323.851C177.231 320.113 177.969 316.409 179.41 312.953C180.85 309.498 182.963 306.357 185.63 303.713C188.296 301.068 191.463 298.971 194.948 297.541C198.434 296.11 202.169 295.375 205.942 295.378C207.628 295.377 209.311 295.52 210.973 295.805C212.593 296.065 214.185 296.479 215.725 297.041C218.86 298.144 221.772 299.789 224.326 301.9L263.525 334.187H196.459Z" fill="white"/>
</g>
<defs>
<clipPath id="clip0_616_1145">
<rect width="500" height="500" fill="white"/>
</clipPath>
</defs>
</svg>
