<svg width="500" height="500" viewBox="0 0 500 500" fill="none" xmlns="http://www.w3.org/2000/svg">
<g clip-path="url(#clip0_341_915)">
<rect x="11.5" y="11.5" width="477" height="477" rx="110.5" fill="#12AAFF" fill-opacity="0.2" stroke="#12AAFF" stroke-width="23"/>
<path d="M111.372 183.888V316.56C111.372 325.088 115.839 332.805 123.285 337.137L238.222 403.473C245.532 407.67 254.603 407.67 261.913 403.473L376.85 337.137C384.161 332.94 388.764 325.088 388.764 316.56V183.888C388.764 175.359 384.296 167.643 376.85 163.31L261.913 96.9747C254.603 92.778 245.532 92.778 238.222 96.9747L123.285 163.31C115.975 167.507 111.507 175.359 111.507 183.888H111.372Z" fill="#213147"/>
<path d="M275.045 275.946L258.664 320.892C258.258 322.11 258.258 323.464 258.664 324.818L286.823 402.119L319.449 383.301L280.325 275.946C279.377 273.509 275.992 273.509 275.045 275.946Z" fill="#12AAFF"/>
<path d="M307.942 200.404C306.994 197.967 303.61 197.967 302.662 200.404L286.281 245.35C285.875 246.569 285.875 247.922 286.281 249.276L332.446 375.856L365.072 357.038L307.942 200.54V200.404Z" fill="#12AAFF"/>
<path d="M250 101.984C250.812 101.984 251.625 102.255 252.301 102.661L376.579 174.412C378.069 175.224 378.881 176.848 378.881 178.473V321.975C378.881 323.599 377.933 325.224 376.579 326.036L252.301 397.787C251.625 398.193 250.812 398.464 250 398.464C249.188 398.464 248.375 398.193 247.699 397.787L123.421 326.036C121.931 325.224 121.119 323.599 121.119 321.975V178.338C121.119 176.713 122.067 175.088 123.421 174.276L247.699 102.525C248.375 102.119 249.188 101.848 250 101.848V101.984ZM250 81C245.532 81 241.2 82.083 237.139 84.3845L112.861 156.135C104.874 160.738 100 169.132 100 178.338V321.839C100 331.045 104.874 339.439 112.861 344.042L237.139 415.792C241.065 418.094 245.532 419.177 250 419.177C254.468 419.177 258.8 418.094 262.861 415.792L387.139 344.042C395.126 339.439 400 331.045 400 321.839V178.338C400 169.132 395.126 160.738 387.139 156.135L262.726 84.3845C258.8 82.083 254.332 81 249.865 81H250Z" fill="#9DCCED"/>
<path d="M167.69 375.991L179.197 344.583L202.211 363.671L180.686 383.437L167.69 375.991Z" fill="#213147"/>
<path d="M239.44 168.184H207.897C205.596 168.184 203.43 169.673 202.617 171.839L135.063 357.038L167.69 375.856L242.148 171.839C242.825 169.944 241.471 168.049 239.576 168.049L239.44 168.184Z" fill="white"/>
<path d="M294.675 168.184H263.132C260.831 168.184 258.664 169.673 257.852 171.839L180.686 383.302L213.313 402.119L297.248 171.839C297.924 169.944 296.571 168.049 294.675 168.049V168.184Z" fill="white"/>
</g>
<defs>
<clipPath id="clip0_341_915">
<rect width="500" height="500" fill="white"/>
</clipPath>
</defs>
</svg>
