<svg width="500" height="500" viewBox="0 0 500 500" fill="none" xmlns="http://www.w3.org/2000/svg">
<g clip-path="url(#clip0_341_637)">
<rect x="11.5" y="11.5" width="477" height="477" rx="110.5" fill="#E84142" fill-opacity="0.2" stroke="#E84142" stroke-width="23"/>
<path fill-rule="evenodd" clip-rule="evenodd" d="M400 250C400 332.844 332.844 400 250 400C167.157 400 100 332.844 100 250C100 167.157 167.157 100 250 100C332.844 100 400 167.157 400 250ZM207.494 309.692H178.383C172.266 309.692 169.245 309.692 167.403 308.514C165.413 307.224 164.197 305.087 164.049 302.728C163.939 300.555 165.45 297.901 168.471 292.594L240.349 165.899C243.408 160.519 244.955 157.829 246.908 156.834C249.009 155.766 251.515 155.766 253.615 156.834C255.568 157.829 257.116 160.519 260.174 165.899L274.951 191.694L275.026 191.825C278.329 197.597 280.005 200.524 280.736 203.596C281.547 206.949 281.547 210.486 280.736 213.84C279.999 216.935 278.341 219.883 274.987 225.742L237.232 292.484L237.134 292.655C233.809 298.474 232.124 301.423 229.788 303.648C227.246 306.081 224.187 307.849 220.834 308.846C217.775 309.692 214.348 309.692 207.494 309.692ZM281.009 309.692H322.721C328.875 309.692 331.971 309.692 333.814 308.478C335.804 307.188 337.056 305.013 337.168 302.656C337.274 300.553 335.796 298.002 332.899 293.004C332.8 292.834 332.7 292.661 332.598 292.485L311.704 256.741L311.466 256.339C308.53 251.374 307.048 248.866 305.144 247.897C303.045 246.828 300.575 246.828 298.475 247.897C296.559 248.892 295.011 251.508 291.953 256.778L271.133 292.521L271.062 292.645C268.014 297.906 266.491 300.535 266.601 302.692C266.748 305.051 267.964 307.224 269.954 308.514C271.76 309.692 274.855 309.692 281.009 309.692Z" fill="#E84142"/>
</g>
<defs>
<clipPath id="clip0_341_637">
<rect width="500" height="500" fill="white"/>
</clipPath>
</defs>
</svg>
