<svg width="500" height="500" viewBox="0 0 500 500" fill="none" xmlns="http://www.w3.org/2000/svg">
<g clip-path="url(#clip0_341_649)">
<rect x="11.5" y="11.5" width="477" height="477" rx="110.5" fill="#0153FF" fill-opacity="0.2" stroke="#0153FF" stroke-width="23"/>
<g clip-path="url(#clip1_341_649)">
<mask id="mask0_341_649" style="mask-type:luminance" maskUnits="userSpaceOnUse" x="100" y="100" width="300" height="300">
<path d="M250 400C167.152 400 100 332.848 100 250C100 167.152 167.152 100 250 100C332.848 100 400 167.152 400 250C400 332.848 332.848 400 250 400Z" fill="white"/>
</mask>
<g mask="url(#mask0_341_649)">
<path fill-rule="evenodd" clip-rule="evenodd" d="M250 250L37.84 248.692L38.032 240.892L250 250Z" fill="#FEFEFF"/>
<path fill-rule="evenodd" clip-rule="evenodd" d="M250 250L37.996 242.188L38.32 235.684L250 250Z" fill="#FDFEFF"/>
<path fill-rule="evenodd" clip-rule="evenodd" d="M250 250L38.248 236.992L38.728 230.5L250 250Z" fill="#FCFDFF"/>
<path fill-rule="evenodd" clip-rule="evenodd" d="M250 250L38.632 231.796L39.268 225.316L250 250Z" fill="#FBFCFF"/>
<path fill-rule="evenodd" clip-rule="evenodd" d="M250 250L39.1479 226.612L39.9399 220.156L250 250Z" fill="#FAFCFF"/>
<path fill-rule="evenodd" clip-rule="evenodd" d="M250 250L39.784 221.452L40.732 215.008L250 250Z" fill="#F9FBFF"/>
<path fill-rule="evenodd" clip-rule="evenodd" d="M250 250L40.5519 216.292L41.6559 209.884L250 250Z" fill="#F8FAFF"/>
<path fill-rule="evenodd" clip-rule="evenodd" d="M250 250L41.4399 211.168L42.6999 204.784L250 250Z" fill="#F7FAFF"/>
<path fill-rule="evenodd" clip-rule="evenodd" d="M250 250L42.448 206.068L43.876 199.708L250 250Z" fill="#F6F9FF"/>
<path fill-rule="evenodd" clip-rule="evenodd" d="M250 250L43.588 200.98L45.172 194.668L250 250Z" fill="#F5F8FF"/>
<path fill-rule="evenodd" clip-rule="evenodd" d="M250 250L44.86 195.928L46.588 189.652L250 250Z" fill="#F4F8FF"/>
<path fill-rule="evenodd" clip-rule="evenodd" d="M250 250L46.24 190.912L48.136 184.684L250 250Z" fill="#F3F7FF"/>
<path fill-rule="evenodd" clip-rule="evenodd" d="M250 250L47.752 185.932L49.804 179.752L250 250Z" fill="#F2F6FF"/>
<path fill-rule="evenodd" clip-rule="evenodd" d="M250 250L49.384 180.988L51.58 174.856L250 250Z" fill="#F1F6FF"/>
<path fill-rule="evenodd" clip-rule="evenodd" d="M250 250L51.1479 176.08L53.4879 170.008L250 250Z" fill="#F0F5FF"/>
<path fill-rule="evenodd" clip-rule="evenodd" d="M250 250L53.02 171.22L55.504 165.208L250 250Z" fill="#EFF4FF"/>
<path fill-rule="evenodd" clip-rule="evenodd" d="M250 250L55.012 166.408L57.652 160.468L250 250Z" fill="#EEF3FF"/>
<path fill-rule="evenodd" clip-rule="evenodd" d="M250 250L57.124 161.656L59.908 155.776L250 250Z" fill="#EDF3FF"/>
<path fill-rule="evenodd" clip-rule="evenodd" d="M250 250L59.344 156.952L62.272 151.132L250 250Z" fill="#ECF2FF"/>
<path fill-rule="evenodd" clip-rule="evenodd" d="M250 250L61.684 152.296L64.756 146.56L250 250Z" fill="#EBF1FF"/>
<path fill-rule="evenodd" clip-rule="evenodd" d="M250 250L64.144 147.712L67.348 142.036L250 250Z" fill="#EAF1FF"/>
<path fill-rule="evenodd" clip-rule="evenodd" d="M250 250L66.712 143.176L70.06 137.596L250 250Z" fill="#E9F0FF"/>
<path fill-rule="evenodd" clip-rule="evenodd" d="M250 250L69.3879 138.712L72.8679 133.204L250 250Z" fill="#E8EFFF"/>
<path fill-rule="evenodd" clip-rule="evenodd" d="M250 250L72.172 134.308L75.796 128.896L250 250Z" fill="#E7EFFF"/>
<path fill-rule="evenodd" clip-rule="evenodd" d="M250 250L75.064 129.976L78.808 124.66L250 250Z" fill="#E6EEFF"/>
<path fill-rule="evenodd" clip-rule="evenodd" d="M250 250L78.064 125.728L81.94 120.496L250 250Z" fill="#E5EDFF"/>
<path fill-rule="evenodd" clip-rule="evenodd" d="M250 250L81.16 121.54L85.168 116.404L250 250Z" fill="#E4EDFF"/>
<path fill-rule="evenodd" clip-rule="evenodd" d="M250 250L84.364 117.436L88.492 112.408L250 250Z" fill="#E3ECFF"/>
<path fill-rule="evenodd" clip-rule="evenodd" d="M250 250L87.676 113.416L91.924 108.484L250 250Z" fill="#E2EBFF"/>
<path fill-rule="evenodd" clip-rule="evenodd" d="M250 250L91.072 109.468L95.44 104.644L250 250Z" fill="#E1EBFF"/>
<path fill-rule="evenodd" clip-rule="evenodd" d="M250 250L94.564 105.616L99.052 100.9L250 250Z" fill="#E0EAFF"/>
<path fill-rule="evenodd" clip-rule="evenodd" d="M250 250L98.152 101.848L102.76 97.2397L250 250Z" fill="#DFE9FF"/>
<path fill-rule="evenodd" clip-rule="evenodd" d="M250 250L101.848 98.1518L106.552 93.6758L250 250Z" fill="#DEE9FF"/>
<path fill-rule="evenodd" clip-rule="evenodd" d="M250 250L105.616 94.5638L110.44 90.1958L250 250Z" fill="#DDE8FF"/>
<path fill-rule="evenodd" clip-rule="evenodd" d="M250 250L109.468 91.0717L114.4 86.8237L250 250Z" fill="#DCE7FF"/>
<path fill-rule="evenodd" clip-rule="evenodd" d="M250 250L113.416 87.6759L118.444 83.5479L250 250Z" fill="#DBE7FF"/>
<path fill-rule="evenodd" clip-rule="evenodd" d="M250 250L117.436 84.3637L122.572 80.3677L250 250Z" fill="#DAE6FF"/>
<path fill-rule="evenodd" clip-rule="evenodd" d="M250 250L121.54 81.1597L126.772 77.2837L250 250Z" fill="#D9E5FF"/>
<path fill-rule="evenodd" clip-rule="evenodd" d="M250 250L125.728 78.0638L131.044 74.3198L250 250Z" fill="#D8E5FF"/>
<path fill-rule="evenodd" clip-rule="evenodd" d="M250 250L129.976 75.0637L135.388 71.4517L250 250Z" fill="#D7E4FF"/>
<path fill-rule="evenodd" clip-rule="evenodd" d="M250 250L134.308 72.1719L139.816 68.6919L250 250Z" fill="#D6E3FF"/>
<path fill-rule="evenodd" clip-rule="evenodd" d="M250 250L138.712 69.388L144.292 66.04L250 250Z" fill="#D5E3FF"/>
<path fill-rule="evenodd" clip-rule="evenodd" d="M250 250L143.176 66.7118L148.84 63.5078L250 250Z" fill="#D4E2FF"/>
<path fill-rule="evenodd" clip-rule="evenodd" d="M250 250L147.712 64.1438L153.448 61.0718L250 250Z" fill="#D3E1FF"/>
<path fill-rule="evenodd" clip-rule="evenodd" d="M250 250L152.296 61.6841L158.116 58.7681L250 250Z" fill="#D2E0FF"/>
<path fill-rule="evenodd" clip-rule="evenodd" d="M250 250L156.952 59.3438L162.832 56.5718L250 250Z" fill="#D1E0FF"/>
<path fill-rule="evenodd" clip-rule="evenodd" d="M250 250L161.656 57.1239L167.608 54.4839L250 250Z" fill="#D0DFFF"/>
<path fill-rule="evenodd" clip-rule="evenodd" d="M250 250L166.408 55.0116L172.432 52.5156L250 250Z" fill="#CFDEFF"/>
<path fill-rule="evenodd" clip-rule="evenodd" d="M250 250L171.22 53.0197L177.304 50.6797L250 250Z" fill="#CEDEFF"/>
<path fill-rule="evenodd" clip-rule="evenodd" d="M250 250L176.08 51.1477L182.212 48.9517L250 250Z" fill="#CDDDFF"/>
<path fill-rule="evenodd" clip-rule="evenodd" d="M250 250L180.988 49.384L187.168 47.356L250 250Z" fill="#CCDCFF"/>
<path fill-rule="evenodd" clip-rule="evenodd" d="M250 250L185.932 47.7517L192.16 45.8677L250 250Z" fill="#CBDCFF"/>
<path fill-rule="evenodd" clip-rule="evenodd" d="M250 250L190.912 46.2397L197.188 44.5117L250 250Z" fill="#CADBFF"/>
<path fill-rule="evenodd" clip-rule="evenodd" d="M250 250L195.928 44.8599L202.24 43.2759L250 250Z" fill="#C9DAFF"/>
<path fill-rule="evenodd" clip-rule="evenodd" d="M250 250L200.98 43.5879L207.328 42.1719L250 250Z" fill="#C8DAFF"/>
<path fill-rule="evenodd" clip-rule="evenodd" d="M250 250L206.068 42.448L212.44 41.188L250 250Z" fill="#C7D9FF"/>
<path fill-rule="evenodd" clip-rule="evenodd" d="M250 250L211.168 41.4397L217.576 40.3237L250 250Z" fill="#C6D8FF"/>
<path fill-rule="evenodd" clip-rule="evenodd" d="M250 250L216.292 40.5518L222.736 39.5918L250 250Z" fill="#C5D8FF"/>
<path fill-rule="evenodd" clip-rule="evenodd" d="M250 250L221.452 39.7837L227.908 38.9917L250 250Z" fill="#C4D7FF"/>
<path fill-rule="evenodd" clip-rule="evenodd" d="M250 250L226.612 39.1477L233.092 38.5117L250 250Z" fill="#C3D6FF"/>
<path fill-rule="evenodd" clip-rule="evenodd" d="M250 250L231.796 38.6319L238.288 38.1519L250 250Z" fill="#C2D6FF"/>
<path fill-rule="evenodd" clip-rule="evenodd" d="M250 250L236.992 38.248L243.496 37.936L250 250Z" fill="#C1D5FF"/>
<path fill-rule="evenodd" clip-rule="evenodd" d="M250 250L242.188 37.9958L248.692 37.8398L250 250Z" fill="#C0D4FF"/>
<path fill-rule="evenodd" clip-rule="evenodd" d="M250 250L247.396 37.8638H253.9L250 250Z" fill="#BFD4FF"/>
<path fill-rule="evenodd" clip-rule="evenodd" d="M250 250L252.604 37.8638L259.108 38.0318L250 250Z" fill="#BED3FF"/>
<path fill-rule="evenodd" clip-rule="evenodd" d="M250 250L257.812 37.9956L264.304 38.3196L250 250Z" fill="#BDD2FF"/>
<path fill-rule="evenodd" clip-rule="evenodd" d="M250 250L263.008 38.248L269.5 38.728L250 250Z" fill="#BCD2FF"/>
<path fill-rule="evenodd" clip-rule="evenodd" d="M250 250L268.204 38.6318L274.684 39.2678L250 250Z" fill="#BBD1FF"/>
<path fill-rule="evenodd" clip-rule="evenodd" d="M250 250L273.376 39.1479L279.844 39.9399L250 250Z" fill="#BAD0FF"/>
<path fill-rule="evenodd" clip-rule="evenodd" d="M250 250L278.548 39.7837L284.992 40.7317L250 250Z" fill="#B9D0FF"/>
<path fill-rule="evenodd" clip-rule="evenodd" d="M250 250L283.696 40.5518L290.116 41.6558L250 250Z" fill="#B8CFFF"/>
<path fill-rule="evenodd" clip-rule="evenodd" d="M250 250L288.832 41.4399L295.216 42.6999L250 250Z" fill="#B7CEFF"/>
<path fill-rule="evenodd" clip-rule="evenodd" d="M250 250L293.932 42.4478L300.292 43.8758L250 250Z" fill="#B6CDFF"/>
<path fill-rule="evenodd" clip-rule="evenodd" d="M250 250L299.02 43.5879L305.332 45.1719L250 250Z" fill="#B5CDFF"/>
<path fill-rule="evenodd" clip-rule="evenodd" d="M250 250L304.072 44.8599L310.336 46.5879L250 250Z" fill="#B4CCFF"/>
<path fill-rule="evenodd" clip-rule="evenodd" d="M250 250L309.088 46.2397L315.316 48.1357L250 250Z" fill="#B3CBFF"/>
<path fill-rule="evenodd" clip-rule="evenodd" d="M250 250L314.068 47.752L320.248 49.804L250 250Z" fill="#B2CBFF"/>
<path fill-rule="evenodd" clip-rule="evenodd" d="M250 250L319.012 49.3838L325.144 51.5798L250 250Z" fill="#B1CAFF"/>
<path fill-rule="evenodd" clip-rule="evenodd" d="M250 250L323.92 51.1479L329.992 53.4879L250 250Z" fill="#B0C9FF"/>
<path fill-rule="evenodd" clip-rule="evenodd" d="M250 250L328.768 53.02L334.792 55.504L250 250Z" fill="#AFC9FF"/>
<path fill-rule="evenodd" clip-rule="evenodd" d="M250 250L333.58 55.0117L339.532 57.6517L250 250Z" fill="#AEC8FF"/>
<path fill-rule="evenodd" clip-rule="evenodd" d="M250 250L338.344 57.124L344.224 59.908L250 250Z" fill="#ADC7FF"/>
<path fill-rule="evenodd" clip-rule="evenodd" d="M250 250L343.048 59.3438L348.868 62.2717L250 250Z" fill="#ACC7FF"/>
<path fill-rule="evenodd" clip-rule="evenodd" d="M250 250L347.704 61.6841L353.44 64.7561L250 250Z" fill="#ABC6FF"/>
<path fill-rule="evenodd" clip-rule="evenodd" d="M250 250L352.288 64.144L357.964 67.348L250 250Z" fill="#AAC5FF"/>
<path fill-rule="evenodd" clip-rule="evenodd" d="M250 250L356.824 66.7119L362.404 70.0599L250 250Z" fill="#A9C5FF"/>
<path fill-rule="evenodd" clip-rule="evenodd" d="M250 250L361.288 69.3877L366.784 72.8677L250 250Z" fill="#A8C4FF"/>
<path fill-rule="evenodd" clip-rule="evenodd" d="M250 250L365.692 72.1719L371.104 75.7959L250 250Z" fill="#A7C3FF"/>
<path fill-rule="evenodd" clip-rule="evenodd" d="M250 250L370.024 75.064L375.34 78.808L250 250Z" fill="#A6C3FF"/>
<path fill-rule="evenodd" clip-rule="evenodd" d="M250 250L374.272 78.064L379.504 81.94L250 250Z" fill="#A5C2FF"/>
<path fill-rule="evenodd" clip-rule="evenodd" d="M250 250L378.46 81.1597L383.584 85.1677L250 250Z" fill="#A4C1FF"/>
<path fill-rule="evenodd" clip-rule="evenodd" d="M250 250L382.564 84.3638L387.592 88.4918L250 250Z" fill="#A3C1FF"/>
<path fill-rule="evenodd" clip-rule="evenodd" d="M250 250L386.584 87.6758L391.516 91.9238L250 250Z" fill="#A2C0FF"/>
<path fill-rule="evenodd" clip-rule="evenodd" d="M250 250L390.532 91.0718L395.356 95.4398L250 250Z" fill="#A1BFFF"/>
<path fill-rule="evenodd" clip-rule="evenodd" d="M250 250L394.384 94.564L399.1 99.052L250 250Z" fill="#A0BFFF"/>
<path fill-rule="evenodd" clip-rule="evenodd" d="M250 250L398.152 98.1519L402.76 102.76L250 250Z" fill="#9FBEFF"/>
<path fill-rule="evenodd" clip-rule="evenodd" d="M250 250L401.836 101.848L406.324 106.552L250 250Z" fill="#9EBDFF"/>
<path fill-rule="evenodd" clip-rule="evenodd" d="M250 250L405.436 105.616L409.804 110.44L250 250Z" fill="#9DBDFF"/>
<path fill-rule="evenodd" clip-rule="evenodd" d="M250 250L408.928 109.468L413.176 114.4L250 250Z" fill="#9CBCFF"/>
<path fill-rule="evenodd" clip-rule="evenodd" d="M250 250L412.324 113.416L416.452 118.444L250 250Z" fill="#9BBBFF"/>
<path fill-rule="evenodd" clip-rule="evenodd" d="M250 250L415.636 117.436L419.632 122.572L250 250Z" fill="#9ABAFF"/>
<path fill-rule="evenodd" clip-rule="evenodd" d="M250 250L418.84 121.54L422.716 126.772L250 250Z" fill="#99BAFF"/>
<path fill-rule="evenodd" clip-rule="evenodd" d="M250 250L421.936 125.728L425.68 131.044L250 250Z" fill="#98B9FF"/>
<path fill-rule="evenodd" clip-rule="evenodd" d="M250 250L424.936 129.976L428.548 135.388L250 250Z" fill="#97B8FF"/>
<path fill-rule="evenodd" clip-rule="evenodd" d="M250 250L427.828 134.308L431.308 139.816L250 250Z" fill="#96B8FF"/>
<path fill-rule="evenodd" clip-rule="evenodd" d="M250 250L430.612 138.712L433.96 144.292L250 250Z" fill="#95B7FF"/>
<path fill-rule="evenodd" clip-rule="evenodd" d="M250 250L433.288 143.176L436.492 148.84L250 250Z" fill="#94B6FF"/>
<path fill-rule="evenodd" clip-rule="evenodd" d="M250 250L435.856 147.712L438.916 153.448L250 250Z" fill="#93B6FF"/>
<path fill-rule="evenodd" clip-rule="evenodd" d="M250 250L438.304 152.296L441.232 158.116L250 250Z" fill="#92B5FF"/>
<path fill-rule="evenodd" clip-rule="evenodd" d="M250 250L440.656 156.952L443.428 162.832L250 250Z" fill="#91B4FF"/>
<path fill-rule="evenodd" clip-rule="evenodd" d="M250 250L442.876 161.656L445.516 167.608L250 250Z" fill="#90B4FF"/>
<path fill-rule="evenodd" clip-rule="evenodd" d="M250 250L444.988 166.408L447.472 172.432L250 250Z" fill="#8FB3FF"/>
<path fill-rule="evenodd" clip-rule="evenodd" d="M250 250L446.98 171.22L449.32 177.304L250 250Z" fill="#8EB2FF"/>
<path fill-rule="evenodd" clip-rule="evenodd" d="M250 250L448.852 176.08L451.048 182.212L250 250Z" fill="#8DB2FF"/>
<path fill-rule="evenodd" clip-rule="evenodd" d="M250 250L450.604 180.988L452.644 187.168L250 250Z" fill="#8CB1FF"/>
<path fill-rule="evenodd" clip-rule="evenodd" d="M250 250L452.236 185.932L454.132 192.16L250 250Z" fill="#8BB0FF"/>
<path fill-rule="evenodd" clip-rule="evenodd" d="M250 250L453.748 190.912L455.488 197.188L250 250Z" fill="#8AB0FF"/>
<path fill-rule="evenodd" clip-rule="evenodd" d="M250 250L455.14 195.928L456.724 202.24L250 250Z" fill="#89AFFF"/>
<path fill-rule="evenodd" clip-rule="evenodd" d="M250 250L456.412 200.98L457.828 207.328L250 250Z" fill="#88AEFF"/>
<path fill-rule="evenodd" clip-rule="evenodd" d="M250 250L457.54 206.068L458.812 212.44L250 250Z" fill="#87AEFF"/>
<path fill-rule="evenodd" clip-rule="evenodd" d="M250 250L458.56 211.168L459.676 217.576L250 250Z" fill="#86ADFF"/>
<path fill-rule="evenodd" clip-rule="evenodd" d="M250 250L459.448 216.292L460.408 222.736L250 250Z" fill="#85ACFF"/>
<path fill-rule="evenodd" clip-rule="evenodd" d="M250 250L460.216 221.452L461.008 227.908L250 250Z" fill="#84ACFF"/>
<path fill-rule="evenodd" clip-rule="evenodd" d="M250 250L460.852 226.612L461.488 233.092L250 250Z" fill="#83ABFF"/>
<path fill-rule="evenodd" clip-rule="evenodd" d="M250 250L461.368 231.796L461.848 238.288L250 250Z" fill="#82AAFF"/>
<path fill-rule="evenodd" clip-rule="evenodd" d="M250 250L461.752 236.992L462.064 243.496L250 250Z" fill="#81AAFF"/>
<path fill-rule="evenodd" clip-rule="evenodd" d="M250 250L462.004 242.188L462.16 248.692L250 250Z" fill="#80A9FF"/>
<path fill-rule="evenodd" clip-rule="evenodd" d="M250 250L462.124 247.396V253.9L250 250Z" fill="#7FA8FF"/>
<path fill-rule="evenodd" clip-rule="evenodd" d="M250 250L462.124 252.604L461.968 259.108L250 250Z" fill="#7EA7FF"/>
<path fill-rule="evenodd" clip-rule="evenodd" d="M250 250L462.004 257.812L461.68 264.304L250 250Z" fill="#7DA7FF"/>
<path fill-rule="evenodd" clip-rule="evenodd" d="M250 250L461.752 263.008L461.272 269.5L250 250Z" fill="#7CA6FF"/>
<path fill-rule="evenodd" clip-rule="evenodd" d="M250 250L461.368 268.204L460.732 274.684L250 250Z" fill="#7BA5FF"/>
<path fill-rule="evenodd" clip-rule="evenodd" d="M250 250L460.852 273.376L460.06 279.844L250 250Z" fill="#7AA5FF"/>
<path fill-rule="evenodd" clip-rule="evenodd" d="M250 250L460.216 278.548L459.256 284.992L250 250Z" fill="#79A4FF"/>
<path fill-rule="evenodd" clip-rule="evenodd" d="M250 250L459.448 283.696L458.344 290.116L250 250Z" fill="#78A3FF"/>
<path fill-rule="evenodd" clip-rule="evenodd" d="M250 250L458.56 288.832L457.288 295.216L250 250Z" fill="#77A3FF"/>
<path fill-rule="evenodd" clip-rule="evenodd" d="M250 250L457.54 293.932L456.124 300.292L250 250Z" fill="#76A2FF"/>
<path fill-rule="evenodd" clip-rule="evenodd" d="M250 250L456.412 299.02L454.828 305.332L250 250Z" fill="#75A1FF"/>
<path fill-rule="evenodd" clip-rule="evenodd" d="M250 250L455.14 304.072L453.412 310.336L250 250Z" fill="#74A1FF"/>
<path fill-rule="evenodd" clip-rule="evenodd" d="M250 250L453.748 309.088L451.864 315.316L250 250Z" fill="#73A0FF"/>
<path fill-rule="evenodd" clip-rule="evenodd" d="M250 250L452.236 314.068L450.196 320.248L250 250Z" fill="#729FFF"/>
<path fill-rule="evenodd" clip-rule="evenodd" d="M250 250L450.604 319.012L448.42 325.144L250 250Z" fill="#719FFF"/>
<path fill-rule="evenodd" clip-rule="evenodd" d="M250 250L448.852 323.92L446.512 329.992L250 250Z" fill="#709EFF"/>
<path fill-rule="evenodd" clip-rule="evenodd" d="M250 250L446.98 328.768L444.484 334.792L250 250Z" fill="#6F9DFF"/>
<path fill-rule="evenodd" clip-rule="evenodd" d="M250 250L444.988 333.58L442.348 339.532L250 250Z" fill="#6E9DFF"/>
<path fill-rule="evenodd" clip-rule="evenodd" d="M250 250L442.876 338.344L440.092 344.224L250 250Z" fill="#6D9CFF"/>
<path fill-rule="evenodd" clip-rule="evenodd" d="M250 250L440.656 343.048L437.728 348.868L250 250Z" fill="#6C9BFF"/>
<path fill-rule="evenodd" clip-rule="evenodd" d="M250 250L438.304 347.704L435.244 353.44L250 250Z" fill="#6B9BFF"/>
<path fill-rule="evenodd" clip-rule="evenodd" d="M250 250L435.856 352.288L432.652 357.964L250 250Z" fill="#6A9AFF"/>
<path fill-rule="evenodd" clip-rule="evenodd" d="M250 250L433.288 356.824L429.94 362.404L250 250Z" fill="#6999FF"/>
<path fill-rule="evenodd" clip-rule="evenodd" d="M250 250L430.612 361.288L427.132 366.784L250 250Z" fill="#6899FF"/>
<path fill-rule="evenodd" clip-rule="evenodd" d="M250 250L427.828 365.692L424.204 371.104L250 250Z" fill="#6798FF"/>
<path fill-rule="evenodd" clip-rule="evenodd" d="M250 250L424.936 370.024L421.192 375.34L250 250Z" fill="#6697FF"/>
<path fill-rule="evenodd" clip-rule="evenodd" d="M250 250L421.936 374.272L418.06 379.504L250 250Z" fill="#6597FF"/>
<path fill-rule="evenodd" clip-rule="evenodd" d="M250 250L418.84 378.46L414.832 383.584L250 250Z" fill="#6496FF"/>
<path fill-rule="evenodd" clip-rule="evenodd" d="M250 250L415.636 382.564L411.508 387.592L250 250Z" fill="#6395FF"/>
<path fill-rule="evenodd" clip-rule="evenodd" d="M250 250L412.324 386.584L408.076 391.516L250 250Z" fill="#6294FF"/>
<path fill-rule="evenodd" clip-rule="evenodd" d="M250 250L408.928 390.532L404.56 395.356L250 250Z" fill="#6194FF"/>
<path fill-rule="evenodd" clip-rule="evenodd" d="M250 250L405.436 394.384L400.948 399.1L250 250Z" fill="#6093FF"/>
<path fill-rule="evenodd" clip-rule="evenodd" d="M250 250L401.836 398.152L397.24 402.76L250 250Z" fill="#5F92FF"/>
<path fill-rule="evenodd" clip-rule="evenodd" d="M250 250L398.152 401.836L393.448 406.324L250 250Z" fill="#5E92FF"/>
<path fill-rule="evenodd" clip-rule="evenodd" d="M250 250L394.384 405.436L389.56 409.804L250 250Z" fill="#5D91FF"/>
<path fill-rule="evenodd" clip-rule="evenodd" d="M250 250L390.532 408.928L385.6 413.176L250 250Z" fill="#5C90FF"/>
<path fill-rule="evenodd" clip-rule="evenodd" d="M250 250L386.584 412.324L381.556 416.452L250 250Z" fill="#5B90FF"/>
<path fill-rule="evenodd" clip-rule="evenodd" d="M250 250L382.564 415.636L377.428 419.632L250 250Z" fill="#5A8FFF"/>
<path fill-rule="evenodd" clip-rule="evenodd" d="M250 250L378.46 418.84L373.228 422.716L250 250Z" fill="#598EFF"/>
<path fill-rule="evenodd" clip-rule="evenodd" d="M250 250L374.272 421.936L368.956 425.68L250 250Z" fill="#588EFF"/>
<path fill-rule="evenodd" clip-rule="evenodd" d="M250 250L370.024 424.936L364.6 428.548L250 250Z" fill="#578DFF"/>
<path fill-rule="evenodd" clip-rule="evenodd" d="M250 250L365.692 427.828L360.184 431.308L250 250Z" fill="#568CFF"/>
<path fill-rule="evenodd" clip-rule="evenodd" d="M250 250L361.288 430.612L355.708 433.96L250 250Z" fill="#558CFF"/>
<path fill-rule="evenodd" clip-rule="evenodd" d="M250 250L356.824 433.288L351.16 436.492L250 250Z" fill="#548BFF"/>
<path fill-rule="evenodd" clip-rule="evenodd" d="M250 250L352.288 435.856L346.552 438.916L250 250Z" fill="#538AFF"/>
<path fill-rule="evenodd" clip-rule="evenodd" d="M250 250L347.704 438.304L341.884 441.232L250 250Z" fill="#528AFF"/>
<path fill-rule="evenodd" clip-rule="evenodd" d="M250 250L343.048 440.656L337.168 443.428L250 250Z" fill="#5189FF"/>
<path fill-rule="evenodd" clip-rule="evenodd" d="M250 250L338.344 442.876L332.392 445.516L250 250Z" fill="#5088FF"/>
<path fill-rule="evenodd" clip-rule="evenodd" d="M250 250L333.58 444.988L327.568 447.472L250 250Z" fill="#4F88FF"/>
<path fill-rule="evenodd" clip-rule="evenodd" d="M250 250L328.768 446.98L322.696 449.32L250 250Z" fill="#4E87FF"/>
<path fill-rule="evenodd" clip-rule="evenodd" d="M250 250L323.92 448.852L317.788 451.048L250 250Z" fill="#4D86FF"/>
<path fill-rule="evenodd" clip-rule="evenodd" d="M250 250L319.012 450.604L312.832 452.644L250 250Z" fill="#4C86FF"/>
<path fill-rule="evenodd" clip-rule="evenodd" d="M250 250L314.068 452.236L307.84 454.132L250 250Z" fill="#4B85FF"/>
<path fill-rule="evenodd" clip-rule="evenodd" d="M250 250L309.088 453.748L302.812 455.488L250 250Z" fill="#4A84FF"/>
<path fill-rule="evenodd" clip-rule="evenodd" d="M250 250L304.072 455.14L297.748 456.724L250 250Z" fill="#4984FF"/>
<path fill-rule="evenodd" clip-rule="evenodd" d="M250 250L299.02 456.412L292.672 457.828L250 250Z" fill="#4883FF"/>
<path fill-rule="evenodd" clip-rule="evenodd" d="M250 250L293.932 457.54L287.548 458.812L250 250Z" fill="#4782FF"/>
<path fill-rule="evenodd" clip-rule="evenodd" d="M250 250L288.832 458.56L282.424 459.676L250 250Z" fill="#4681FF"/>
<path fill-rule="evenodd" clip-rule="evenodd" d="M250 250L283.696 459.448L277.264 460.408L250 250Z" fill="#4581FF"/>
<path fill-rule="evenodd" clip-rule="evenodd" d="M250 250L278.548 460.216L272.092 461.008L250 250Z" fill="#4480FF"/>
<path fill-rule="evenodd" clip-rule="evenodd" d="M250 250L273.376 460.852L266.908 461.488L250 250Z" fill="#437FFF"/>
<path fill-rule="evenodd" clip-rule="evenodd" d="M250 250L268.204 461.368L261.712 461.848L250 250Z" fill="#427FFF"/>
<path fill-rule="evenodd" clip-rule="evenodd" d="M250 250L263.008 461.752L256.504 462.064L250 250Z" fill="#417EFF"/>
<path fill-rule="evenodd" clip-rule="evenodd" d="M250 250L257.812 462.004L251.296 462.16L250 250Z" fill="#407DFF"/>
<path fill-rule="evenodd" clip-rule="evenodd" d="M250 250L252.604 462.124H246.088L250 250Z" fill="#3F7DFF"/>
<path fill-rule="evenodd" clip-rule="evenodd" d="M250 250L247.396 462.124L240.892 461.968L250 250Z" fill="#3E7CFF"/>
<path fill-rule="evenodd" clip-rule="evenodd" d="M250 250L242.188 462.004L235.684 461.68L250 250Z" fill="#3D7BFF"/>
<path fill-rule="evenodd" clip-rule="evenodd" d="M250 250L236.992 461.752L230.5 461.272L250 250Z" fill="#3C7BFF"/>
<path fill-rule="evenodd" clip-rule="evenodd" d="M250 250L231.796 461.368L225.316 460.732L250 250Z" fill="#3B7AFF"/>
<path fill-rule="evenodd" clip-rule="evenodd" d="M250 250L226.612 460.852L220.156 460.06L250 250Z" fill="#3A79FF"/>
<path fill-rule="evenodd" clip-rule="evenodd" d="M250 250L221.452 460.216L215.008 459.256L250 250Z" fill="#3979FF"/>
<path fill-rule="evenodd" clip-rule="evenodd" d="M250 250L216.292 459.448L209.884 458.344L250 250Z" fill="#3878FF"/>
<path fill-rule="evenodd" clip-rule="evenodd" d="M250 250L211.168 458.56L204.784 457.288L250 250Z" fill="#3777FF"/>
<path fill-rule="evenodd" clip-rule="evenodd" d="M250 250L206.068 457.54L199.708 456.124L250 250Z" fill="#3677FF"/>
<path fill-rule="evenodd" clip-rule="evenodd" d="M250 250L200.98 456.412L194.668 454.828L250 250Z" fill="#3576FF"/>
<path fill-rule="evenodd" clip-rule="evenodd" d="M250 250L195.928 455.14L189.652 453.412L250 250Z" fill="#3475FF"/>
<path fill-rule="evenodd" clip-rule="evenodd" d="M250 250L190.912 453.748L184.684 451.864L250 250Z" fill="#3375FF"/>
<path fill-rule="evenodd" clip-rule="evenodd" d="M250 250L185.932 452.236L179.752 450.196L250 250Z" fill="#3274FF"/>
<path fill-rule="evenodd" clip-rule="evenodd" d="M250 250L180.988 450.604L174.856 448.42L250 250Z" fill="#3173FF"/>
<path fill-rule="evenodd" clip-rule="evenodd" d="M250 250L176.08 448.852L170.008 446.512L250 250Z" fill="#3073FF"/>
<path fill-rule="evenodd" clip-rule="evenodd" d="M250 250L171.22 446.98L165.208 444.484L250 250Z" fill="#2F72FF"/>
<path fill-rule="evenodd" clip-rule="evenodd" d="M250 250L166.408 444.988L160.468 442.348L250 250Z" fill="#2E71FF"/>
<path fill-rule="evenodd" clip-rule="evenodd" d="M250 250L161.656 442.876L155.776 440.092L250 250Z" fill="#2D71FF"/>
<path fill-rule="evenodd" clip-rule="evenodd" d="M250 250L156.952 440.656L151.132 437.728L250 250Z" fill="#2C70FF"/>
<path fill-rule="evenodd" clip-rule="evenodd" d="M250 250L152.296 438.304L146.56 435.244L250 250Z" fill="#2B6FFF"/>
<path fill-rule="evenodd" clip-rule="evenodd" d="M250 250L147.712 435.856L142.036 432.652L250 250Z" fill="#2A6EFF"/>
<path fill-rule="evenodd" clip-rule="evenodd" d="M250 250L143.176 433.288L137.596 429.94L250 250Z" fill="#296EFF"/>
<path fill-rule="evenodd" clip-rule="evenodd" d="M250 250L138.712 430.612L133.204 427.132L250 250Z" fill="#286DFF"/>
<path fill-rule="evenodd" clip-rule="evenodd" d="M250 250L134.308 427.828L128.896 424.204L250 250Z" fill="#276CFF"/>
<path fill-rule="evenodd" clip-rule="evenodd" d="M250 250L129.976 424.936L124.66 421.192L250 250Z" fill="#266CFF"/>
<path fill-rule="evenodd" clip-rule="evenodd" d="M250 250L125.728 421.936L120.496 418.06L250 250Z" fill="#256BFF"/>
<path fill-rule="evenodd" clip-rule="evenodd" d="M250 250L121.54 418.84L116.404 414.832L250 250Z" fill="#246AFF"/>
<path fill-rule="evenodd" clip-rule="evenodd" d="M250 250L117.436 415.636L112.408 411.508L250 250Z" fill="#236AFF"/>
<path fill-rule="evenodd" clip-rule="evenodd" d="M250 250L113.416 412.324L108.484 408.076L250 250Z" fill="#2269FF"/>
<path fill-rule="evenodd" clip-rule="evenodd" d="M250 250L109.468 408.928L104.644 404.56L250 250Z" fill="#2168FF"/>
<path fill-rule="evenodd" clip-rule="evenodd" d="M250 250L105.616 405.436L100.9 400.948L250 250Z" fill="#2068FF"/>
<path fill-rule="evenodd" clip-rule="evenodd" d="M250 250L101.848 401.836L97.24 397.24L250 250Z" fill="#1F67FF"/>
<path fill-rule="evenodd" clip-rule="evenodd" d="M250 250L98.152 398.152L93.676 393.448L250 250Z" fill="#1E66FF"/>
<path fill-rule="evenodd" clip-rule="evenodd" d="M250 250L94.564 394.384L90.196 389.56L250 250Z" fill="#1D66FF"/>
<path fill-rule="evenodd" clip-rule="evenodd" d="M250 250L91.072 390.532L86.824 385.6L250 250Z" fill="#1C65FF"/>
<path fill-rule="evenodd" clip-rule="evenodd" d="M250 250L87.676 386.584L83.548 381.556L250 250Z" fill="#1B64FF"/>
<path fill-rule="evenodd" clip-rule="evenodd" d="M250 250L84.364 382.564L80.368 377.428L250 250Z" fill="#1A64FF"/>
<path fill-rule="evenodd" clip-rule="evenodd" d="M250 250L81.16 378.46L77.284 373.228L250 250Z" fill="#1963FF"/>
<path fill-rule="evenodd" clip-rule="evenodd" d="M250 250L78.0639 374.272L74.3199 368.956L250 250Z" fill="#1862FF"/>
<path fill-rule="evenodd" clip-rule="evenodd" d="M250 250L75.064 370.024L71.452 364.6L250 250Z" fill="#1762FF"/>
<path fill-rule="evenodd" clip-rule="evenodd" d="M250 250L72.172 365.692L68.692 360.184L250 250Z" fill="#1661FF"/>
<path fill-rule="evenodd" clip-rule="evenodd" d="M250 250L69.388 361.288L66.04 355.708L250 250Z" fill="#1560FF"/>
<path fill-rule="evenodd" clip-rule="evenodd" d="M250 250L66.712 356.824L63.508 351.16L250 250Z" fill="#1460FF"/>
<path fill-rule="evenodd" clip-rule="evenodd" d="M250 250L64.144 352.288L61.072 346.552L250 250Z" fill="#135FFF"/>
<path fill-rule="evenodd" clip-rule="evenodd" d="M250 250L61.6839 347.704L58.7679 341.884L250 250Z" fill="#125EFF"/>
<path fill-rule="evenodd" clip-rule="evenodd" d="M250 250L59.344 343.048L56.572 337.168L250 250Z" fill="#115EFF"/>
<path fill-rule="evenodd" clip-rule="evenodd" d="M250 250L57.1239 338.344L54.4839 332.392L250 250Z" fill="#105DFF"/>
<path fill-rule="evenodd" clip-rule="evenodd" d="M250 250L55.012 333.58L52.516 327.568L250 250Z" fill="#0F5CFF"/>
<path fill-rule="evenodd" clip-rule="evenodd" d="M250 250L53.02 328.768L50.68 322.696L250 250Z" fill="#0E5BFF"/>
<path fill-rule="evenodd" clip-rule="evenodd" d="M250 250L51.148 323.92L48.952 317.788L250 250Z" fill="#0D5BFF"/>
<path fill-rule="evenodd" clip-rule="evenodd" d="M250 250L49.384 319.012L47.356 312.832L250 250Z" fill="#0C5AFF"/>
<path fill-rule="evenodd" clip-rule="evenodd" d="M250 250L47.752 314.068L45.868 307.84L250 250Z" fill="#0B59FF"/>
<path fill-rule="evenodd" clip-rule="evenodd" d="M250 250L46.24 309.088L44.512 302.812L250 250Z" fill="#0A59FF"/>
<path fill-rule="evenodd" clip-rule="evenodd" d="M250 250L44.8599 304.072L43.2759 297.748L250 250Z" fill="#0958FF"/>
<path fill-rule="evenodd" clip-rule="evenodd" d="M250 250L43.588 299.02L42.172 292.672L250 250Z" fill="#0857FF"/>
<path fill-rule="evenodd" clip-rule="evenodd" d="M250 250L42.448 293.932L41.188 287.548L250 250Z" fill="#0757FF"/>
<path fill-rule="evenodd" clip-rule="evenodd" d="M250 250L41.44 288.832L40.324 282.424L250 250Z" fill="#0656FF"/>
<path fill-rule="evenodd" clip-rule="evenodd" d="M250 250L40.552 283.696L39.592 277.264L250 250Z" fill="#0555FF"/>
<path fill-rule="evenodd" clip-rule="evenodd" d="M250 250L39.7839 278.548L38.9919 272.092L250 250Z" fill="#0455FF"/>
<path fill-rule="evenodd" clip-rule="evenodd" d="M250 250L39.148 273.376L38.512 266.908L250 250Z" fill="#0354FF"/>
<path fill-rule="evenodd" clip-rule="evenodd" d="M250 250L38.632 268.204L38.152 261.712L250 250Z" fill="#0253FF"/>
<path fill-rule="evenodd" clip-rule="evenodd" d="M250 250L38.248 263.008L37.936 256.504L250 250Z" fill="#0153FF"/>
<path fill-rule="evenodd" clip-rule="evenodd" d="M250 250L37.996 257.812L37.84 251.296L250 250Z" fill="#0052FF"/>
<path fill-rule="evenodd" clip-rule="evenodd" d="M250 250L37.864 252.604V247.396L250 250Z" fill="white"/>
</g>
</g>
</g>
<defs>
<clipPath id="clip0_341_649">
<rect width="500" height="500" fill="white"/>
</clipPath>
<clipPath id="clip1_341_649">
<rect width="300" height="300" fill="white" transform="translate(100 100)"/>
</clipPath>
</defs>
</svg>
