<svg width="500" height="500" viewBox="0 0 500 500" fill="none" xmlns="http://www.w3.org/2000/svg">
<g clip-path="url(#clip0_616_1040)">
<rect x="11.5" y="11.5" width="477" height="477" rx="110.5" fill="#13B5EC" fill-opacity="0.2" stroke="#13B5EC" stroke-width="23"/>
<path d="M250 400C332.843 400 400 332.843 400 250C400 167.157 332.843 100 250 100C167.157 100 100 167.157 100 250C100 332.843 167.157 400 250 400Z" fill="#13B5EC"/>
<path fill-rule="evenodd" clip-rule="evenodd" d="M261.25 220.937L295 201.25V240.625L261.25 220.937ZM295 305.312L250 331.563L205 305.312V259.375L250 285.625L295 259.375V305.312ZM205 201.25L238.75 220.937L205 240.625V201.25ZM255.625 230.312L289.375 250L255.625 269.688V230.312ZM244.375 269.688L210.625 250L244.375 230.312V269.688ZM289.375 191.875L250 214.375L210.625 191.875L250 168.438L289.375 191.875ZM193.75 188.125V310.938L250 342.812L306.25 310.938V188.125L250 156.25L193.75 188.125Z" fill="white"/>
</g>
<defs>
<clipPath id="clip0_616_1040">
<rect width="500" height="500" fill="white"/>
</clipPath>
</defs>
</svg>
