<svg width="500" height="500" viewBox="0 0 500 500" fill="none" xmlns="http://www.w3.org/2000/svg">
<g clip-path="url(#clip0_616_1091)">
<rect x="11.5" y="11.5" width="477" height="477" rx="110.5" fill="black" fill-opacity="0.2" stroke="black" stroke-width="23"/>
<path d="M161.747 205.19L116.253 182.025C112.684 189.013 109.684 196.342 107.253 203.823L155.823 219.544C157.418 214.608 159.392 209.785 161.747 205.19Z" fill="white"/>
<path d="M200.367 164.367L225.544 207.772C229.228 205.646 233.177 204.013 237.24 202.911L224.215 154.456C227.519 153.582 230.899 152.823 234.316 152.291L226.304 101.861C218.557 103.076 210.848 104.937 203.405 107.367L218.975 155.139C214 156.772 209.177 158.785 204.544 161.139L181.684 116.443C174.734 120.013 167.975 124.152 161.671 128.785L191.747 169.987C194.519 167.975 197.405 166.114 200.367 164.367Z" fill="white"/>
<path d="M335.595 200.329L292.19 225.545C294.316 229.228 295.987 233.177 297.089 237.241L345.544 224.177C346.456 227.481 347.177 230.861 347.709 234.241L398.139 226.228C396.924 218.481 395.063 210.772 392.595 203.329L344.861 218.975C343.228 214 341.215 209.177 338.861 204.545L383.557 181.608C379.987 174.658 375.848 167.899 371.215 161.595L330.013 191.709C331.987 194.481 333.848 197.367 335.595 200.329Z" fill="white"/>
<path d="M317.899 116.215C310.911 112.646 303.582 109.646 296.101 107.215L280.418 155.785C285.316 157.38 290.139 159.355 294.772 161.709L317.899 116.215Z" fill="white"/>
<path d="M299.747 163.494L274.266 207.734C277.949 209.861 281.367 212.481 284.367 215.481L355.835 143.747C350.291 138.202 344.253 133.076 337.949 128.481L308.481 169.152C305.671 167.101 302.785 165.202 299.747 163.494Z" fill="white"/>
<path d="M163.494 200.177L207.696 225.696C209.823 222.013 212.443 218.595 215.443 215.557L143.785 144.051C138.241 149.595 133.114 155.633 128.519 161.937L169.152 191.443C167.139 194.253 165.241 197.177 163.494 200.177Z" fill="white"/>
<path d="M265.456 151.418L273.165 101.785C265.532 100.608 257.747 100 249.962 100H249.848V201.241H249.962C254.215 201.241 258.468 201.772 262.532 202.873L275.633 153.544C272.291 152.633 268.911 151.949 265.456 151.418Z" fill="white"/>
<path d="M202.873 237.43L153.544 224.291C152.671 227.633 151.949 231.051 151.418 234.468L101.785 226.721C100.608 234.354 100 242.215 100 250H201.241C201.241 245.709 201.81 241.494 202.873 237.43Z" fill="white"/>
<path d="M338.253 294.81L383.747 317.975C387.316 310.987 390.316 303.658 392.747 296.177L344.177 280.456C342.582 285.392 340.608 290.215 338.253 294.81Z" fill="white"/>
<path d="M299.595 335.595L274.418 292.19C270.734 294.317 266.785 295.949 262.722 297.051L275.747 345.506C272.443 346.38 269.063 347.139 265.646 347.671L273.658 398.101C281.405 396.886 289.114 395.025 296.557 392.595L280.987 344.823C285.962 343.19 290.785 341.177 295.418 338.823L318.316 383.519C325.266 379.949 332.025 375.81 338.329 371.177L308.253 329.937C305.481 332.025 302.595 333.886 299.595 335.595Z" fill="white"/>
<path d="M164.405 299.671L207.81 274.418C205.684 270.734 204.013 266.785 202.911 262.722L154.456 275.785C153.544 272.481 152.823 269.101 152.291 265.722L101.861 273.734C103.076 281.481 104.937 289.19 107.405 296.633L155.139 281.025C156.772 285.962 158.785 290.823 161.139 295.456L116.443 318.393C120.013 325.342 124.152 332.101 128.785 338.405L169.987 308.291C168.013 305.519 166.152 302.633 164.405 299.671Z" fill="white"/>
<path d="M182.101 383.785C189.089 387.354 196.418 390.354 203.899 392.785L219.582 344.215C214.684 342.62 209.861 340.645 205.228 338.291L182.101 383.785Z" fill="white"/>
<path d="M200.215 336.506L225.696 292.266C222.013 290.139 218.595 287.519 215.595 284.519L144.127 356.253C149.671 361.798 155.709 366.924 162.013 371.519L191.481 330.848C194.291 332.861 197.215 334.76 200.215 336.506Z" fill="white"/>
<path d="M336.468 299.823L292.266 274.304C290.139 277.987 287.519 281.405 284.519 284.443L356.215 355.949C361.76 350.405 366.886 344.367 371.481 338.063L330.848 308.557C332.861 305.709 334.76 302.823 336.468 299.823Z" fill="white"/>
<path d="M237.43 297.126L224.329 346.456C227.671 347.329 231.089 348.051 234.506 348.582L226.797 398.215C234.43 399.392 242.215 400 250 400H250.114V298.759H250C245.747 298.759 241.494 298.19 237.43 297.126Z" fill="white"/>
<path d="M298.759 250C298.759 254.291 298.228 258.506 297.127 262.57L346.456 275.709C347.329 272.367 348.051 268.949 348.582 265.532L398.215 273.278C399.392 265.646 400 257.785 400 250H298.759Z" fill="white"/>
</g>
<defs>
<clipPath id="clip0_616_1091">
<rect width="500" height="500" fill="white"/>
</clipPath>
</defs>
</svg>
