<svg width="500" height="500" viewBox="0 0 500 500" fill="none" xmlns="http://www.w3.org/2000/svg">
<g clip-path="url(#clip0_616_1198)">
<rect x="11.5" y="11.5" width="477" height="477" rx="110.5" fill="white" fill-opacity="0.2" stroke="white" stroke-width="23"/>
<path d="M340.4 115.316L277.802 208.213C273.474 214.539 281.798 222.198 287.791 216.87L349.39 163.263C351.054 161.931 353.385 162.93 353.385 165.261V332.741C353.385 335.072 350.388 336.071 349.057 334.406L162.597 111.321C156.604 103.996 147.947 100 138.291 100H131.632C114.317 100 100 114.317 100 131.964V367.703C100 385.35 114.317 399.667 131.964 399.667C142.952 399.667 153.274 394.007 159.267 384.351L221.865 291.454C226.193 285.128 217.869 277.469 211.876 282.797L150.277 336.071C148.613 337.403 146.282 336.404 146.282 334.073V166.926C146.282 164.595 149.279 163.596 150.61 165.261L337.07 388.346C343.063 395.671 352.053 399.667 361.376 399.667H368.036C385.683 399.667 400 385.35 400 367.703V131.964C400 114.317 385.683 100 368.036 100C356.715 100 346.393 105.66 340.4 115.316Z" fill="white"/>
</g>
<defs>
<clipPath id="clip0_616_1198">
<rect width="500" height="500" fill="white"/>
</clipPath>
</defs>
</svg>
