<svg width="500" height="500" viewBox="0 0 500 500" fill="none" xmlns="http://www.w3.org/2000/svg">
<g clip-path="url(#clip0_341_932)">
<rect x="11.5" y="11.5" width="477" height="477" rx="110.5" fill="#FF0420" fill-opacity="0.2" stroke="#FF0420" stroke-width="23"/>
<g clip-path="url(#clip1_341_932)">
<path d="M250 400C332.843 400 400 332.843 400 250C400 167.157 332.843 100 250 100C167.157 100 100 167.157 100 250C100 332.843 167.157 400 250 400Z" fill="#FF0420"/>
<path d="M206.26 289.84C197.32 289.84 190 287.74 184.3 283.54C178.66 279.28 175.84 273.16 175.84 265.3C175.84 263.62 176.02 261.64 176.38 259.24C177.34 253.84 178.72 247.36 180.52 239.74C185.62 219.1 198.82 208.78 220.06 208.78C225.82 208.78 231.04 209.74 235.6 211.72C240.16 213.58 243.76 216.46 246.4 220.3C249.04 224.08 250.36 228.58 250.36 233.8C250.36 235.36 250.18 237.34 249.82 239.74C248.68 246.4 247.36 252.94 245.74 259.24C243.1 269.5 238.6 277.24 232.12 282.34C225.7 287.38 217.06 289.84 206.26 289.84ZM207.88 273.64C212.08 273.64 215.62 272.38 218.56 269.92C221.56 267.46 223.72 263.68 224.98 258.52C226.72 251.44 228.04 245.32 228.94 240.04C229.24 238.48 229.42 236.86 229.42 235.18C229.42 228.34 225.88 224.92 218.74 224.92C214.54 224.92 210.94 226.18 207.94 228.64C205 231.1 202.9 234.88 201.64 240.04C200.26 245.08 198.94 251.2 197.56 258.52C197.26 260.02 197.08 261.58 197.08 263.26C197.02 270.22 200.68 273.64 207.88 273.64Z" fill="white"/>
<path d="M255.58 288.76C254.74 288.76 254.14 288.52 253.66 287.98C253.3 287.38 253.18 286.72 253.3 285.94L268.84 212.74C268.96 211.9 269.38 211.24 270.1 210.7C270.76 210.16 271.48 209.92 272.26 209.92H302.2C310.54 209.92 317.2 211.66 322.24 215.08C327.34 218.56 329.92 223.54 329.92 230.08C329.92 231.94 329.68 233.92 329.26 235.96C327.4 244.6 323.62 250.96 317.86 255.1C312.22 259.24 304.48 261.28 294.64 261.28H279.46L274.3 285.94C274.12 286.78 273.76 287.44 273.04 287.98C272.38 288.52 271.66 288.76 270.88 288.76H255.58ZM295.42 245.74C298.6 245.74 301.3 244.9 303.64 243.16C306.04 241.42 307.6 238.96 308.38 235.72C308.62 234.46 308.74 233.32 308.74 232.36C308.74 230.2 308.08 228.52 306.82 227.38C305.56 226.18 303.34 225.58 300.28 225.58H286.78L282.52 245.74H295.42Z" fill="white"/>
</g>
</g>
<defs>
<clipPath id="clip0_341_932">
<rect width="500" height="500" fill="white"/>
</clipPath>
<clipPath id="clip1_341_932">
<rect width="300" height="300" fill="white" transform="translate(100 100)"/>
</clipPath>
</defs>
</svg>
