<svg width="500" height="500" viewBox="0 0 500 500" fill="none" xmlns="http://www.w3.org/2000/svg">
<g clip-path="url(#clip0_616_1217)">
<rect x="11.5" y="11.5" width="477" height="477" rx="110.5" fill="#602F92" fill-opacity="0.2" stroke="#602F92" stroke-width="23"/>
<path d="M386.9 153.028C383.852 141.268 374.048 129.508 356.396 116.416C342.236 105.988 327.2 100 315.212 100C312.812 100 310.64 100.216 308.456 100.66C303.008 101.764 298.22 105.76 295.16 111.76C291.452 118.864 290.588 128.404 292.976 134.176C293.852 135.952 294.932 138.172 296.24 140.164C284.696 147.268 278.156 149.26 277.28 149.488C307.352 159.7 332.408 181 348.104 208.732L348.32 206.068C348.968 198.748 351.152 190.312 354.2 181.66C357.248 182.548 360.296 182.992 363.356 182.992C371.42 182.992 378.392 179.668 382.748 173.668C387.128 167.68 388.868 159.688 386.9 153.028Z" fill="#602F92"/>
<path d="M355.532 175.228C375.356 180.772 383.42 165.244 380.804 154.816C377.972 144.388 368.816 133.732 352.7 121.756C336.572 109.768 320.228 104.896 309.776 107.116C299.312 109.336 296.264 125.536 298.88 131.752C299.972 134.188 302.372 137.74 305.636 141.736C301.496 144.616 297.572 146.836 294.308 148.84C314.36 157.936 331.784 172.144 344.864 189.892C346.388 183.904 348.572 178.576 350.528 173.92C352.04 174.112 353.78 174.556 355.532 175.228Z" fill="url(#paint0_radial_616_1217)"/>
<path d="M242 392.68C309.272 392.68 363.812 337.144 363.812 268.636C363.812 200.128 309.272 144.604 242 144.604C174.728 144.604 120.188 200.14 120.188 268.648C120.188 337.156 174.728 392.68 242 392.68Z" fill="url(#paint1_radial_616_1217)"/>
<path opacity="0.6" d="M370.784 144.604C354.224 126.856 340.28 122.188 323.504 118.42C310.424 115.312 313.916 107.764 329.828 109.324C322.196 106.66 315.008 106 309.776 107.104C299.312 109.324 296.264 125.524 298.88 131.74C299.972 134.176 302.372 137.728 305.636 141.724C299.756 145.72 294.74 148.6 290.6 150.82C292.556 151.708 294.956 152.812 297.788 154.372C305.192 158.368 313.256 165.028 313.256 165.028C301.052 154.372 303.668 149.5 320.444 137.512C325.676 133.744 335.264 134.188 344.192 138.844C353.12 143.5 363.584 155.26 363.584 155.26L353.564 174.784C354.212 175.012 354.872 175.228 355.52 175.456C361.844 177.232 366.848 176.788 370.772 175.228C375.356 172.336 387.344 162.568 370.784 144.604Z" fill="#A98798"/>
<path d="M323.276 129.064C327.632 130.84 333.296 133.948 340.268 138.604C348.548 144.148 355.736 150.364 360.32 155.248C352.688 165.46 347.684 179.44 344.636 189.196C346.16 191.416 347.9 193.636 349.436 195.856C350.96 190.312 353.576 182.092 357.068 173.884C357.944 174.112 359.024 174.112 360.116 174.112C362.732 174.112 365.78 173.668 368.18 171.676C369.92 170.344 371.888 167.908 371.672 163.468C371.672 159.256 368.408 153.928 361.652 147.496C356.852 142.84 350.324 137.728 343.784 133.072C325.04 120.424 311.972 116.872 306.092 122.86C302.168 126.856 302.6 131.74 303.908 135.292C296.936 139.948 291.056 143.284 287.132 145.504C289.748 146.392 292.148 147.496 294.764 148.612C301.7 144.82 311.732 138.388 323.276 129.064ZM364.46 160.804C365.108 161.908 365.336 163.024 365.336 163.684C365.336 165.676 364.688 166.348 364.244 166.792C363.368 167.452 361.628 167.896 360.104 167.896C361.412 165.232 362.936 163.012 364.46 160.804ZM310.64 127.732C311.288 127.072 313.04 126.628 315.872 127.072C313.688 128.848 311.516 130.396 309.332 131.956C309.116 130.396 309.332 128.848 310.64 127.732Z" fill="#602F92"/>
<path d="M242 137.272C170.744 137.272 113 196.072 113 268.636C113 341.2 170.744 400 242 400C313.256 400 371 341.2 371 268.636C371 196.084 313.04 137.272 242 137.272ZM242 392.68C174.668 392.68 120.188 337.204 120.188 268.636C120.188 200.068 174.668 144.592 242 144.592C309.332 144.592 363.812 200.068 363.812 268.636C363.8 337.204 309.116 392.68 242 392.68Z" fill="#602F92"/>
<path opacity="0.6" d="M242 392.68C309.272 392.68 363.812 337.144 363.812 268.636C363.812 200.128 309.272 144.604 242 144.604C174.728 144.604 120.188 200.14 120.188 268.648C120.188 337.156 174.728 392.68 242 392.68Z" fill="url(#paint2_linear_616_1217)"/>
<path opacity="0.6" d="M241.124 377.584C174.668 366.712 129.56 303.028 140.456 235.348C145.256 205.396 160.064 179.872 180.992 161.452C150.476 179.44 127.82 210.724 121.712 248.896C111.032 316.576 156.14 380.26 222.38 391.132C259.424 397.348 295.16 385.588 321.524 362.512C298.22 376.252 269.888 382.252 241.124 377.584Z" fill="#A98798"/>
<path opacity="0.6" d="M261.392 146.38C230.672 141.28 200.816 148.372 176.408 164.128C175.976 164.572 175.532 165.016 175.532 165.016C184.904 159.244 198.632 154.144 198.632 154.144C163.328 175 152.432 198.748 152.432 198.748C166.16 171.676 206.468 152.596 238.064 151.264C269.66 149.932 290.36 159.472 315.632 180.112C340.904 200.968 356.168 243.568 354.632 277.3C353.324 311.032 335.888 338.32 335.888 338.32C347.876 322.564 355.064 311.032 359.636 299.272C360.512 295.72 361.376 292.168 361.82 288.4C372.74 220.936 327.848 157.252 261.392 146.38Z" fill="url(#paint3_linear_616_1217)"/>
<path d="M357.704 267.532C357.704 332.548 305.84 385.36 242 385.36C178.16 385.36 126.08 332.548 126.08 267.532H357.704Z" fill="url(#paint4_linear_616_1217)"/>
<g opacity="0.6">
<path opacity="0.6" d="M348.548 267.532C348.548 330.988 299.3 382.912 237.416 385.36C238.94 385.36 240.464 385.36 241.988 385.36C305.828 385.36 357.692 332.548 357.692 267.532H348.548Z" fill="url(#paint5_linear_616_1217)"/>
</g>
<g opacity="0.7">
<path opacity="0.7" d="M142.424 267.532H126.08C126.08 332.548 177.944 385.36 241.784 385.36C244.616 385.36 247.232 385.36 249.848 385.132C189.92 380.692 142.424 329.656 142.424 267.532Z" fill="url(#paint6_linear_616_1217)"/>
</g>
<path d="M357.488 268.636C357.488 255.1 334.388 247.336 303.668 244.672C281.444 242.896 259.004 245.116 233.288 253.108C211.064 259.768 191.012 258.652 176.42 256.876C143.948 253.108 126.08 252.664 126.08 268.636C126.08 291.712 172.28 320.56 241.568 310.576C276.656 305.476 294.74 295.048 315.44 287.944C337.88 280.396 357.488 280.624 357.488 268.636Z" fill="url(#paint7_linear_616_1217)"/>
<path d="M279.908 212.716C290.744 212.716 299.516 203.776 299.516 192.748C299.516 181.72 290.732 172.78 279.908 172.78C269.084 172.78 260.3 181.72 260.3 192.748C260.3 203.776 269.084 212.716 279.908 212.716Z" fill="white"/>
<path d="M311.948 227.584C316.52 227.584 320.228 223.804 320.228 219.148C320.228 214.492 316.52 210.712 311.948 210.712C307.376 210.712 303.668 214.492 303.668 219.148C303.668 223.816 307.376 227.584 311.948 227.584Z" fill="white"/>
<g opacity="0.6">
<path opacity="0.6" d="M341.576 176.776C341.36 176.776 341.144 176.776 341.144 176.776C339.836 176.548 338.96 175.228 339.188 173.668C341.144 163.456 349.424 153.7 349.868 153.256C350.744 152.152 352.484 152.152 353.36 153.028C354.452 153.916 354.452 155.692 353.576 156.58C353.36 156.796 345.728 165.904 343.988 174.772C343.76 176.104 342.668 176.776 341.576 176.776Z" fill="url(#paint8_linear_616_1217)"/>
</g>
<path opacity="0.2" d="M233.948 361.168C237.32 361.168 240.044 358.384 240.044 354.952C240.044 351.52 237.308 348.736 233.948 348.736C230.576 348.736 227.852 351.52 227.852 354.952C227.852 358.384 230.576 361.168 233.948 361.168Z" fill="white"/>
<g opacity="0.4">
<path opacity="0.6" d="M230.456 358.96C228.056 356.524 228.056 352.528 230.456 350.08C230.888 349.636 231.332 349.42 231.764 348.976C230.888 349.204 230.24 349.636 229.58 350.308C227.18 352.744 227.18 356.74 229.58 359.188C231.536 361.18 234.596 361.624 236.984 360.292C234.812 361.18 232.196 360.736 230.456 358.96Z" fill="url(#paint9_linear_616_1217)"/>
</g>
<path opacity="0.3" d="M236.12 353.176C236.84 353.176 237.428 352.576 237.428 351.844C237.428 351.112 236.84 350.512 236.12 350.512C235.4 350.512 234.812 351.112 234.812 351.844C234.812 352.588 235.388 353.176 236.12 353.176Z" fill="white"/>
<path opacity="0.2" d="M265.76 358.06C269.132 358.06 271.856 355.276 271.856 351.844C271.856 348.412 269.12 345.628 265.76 345.628C262.388 345.628 259.664 348.412 259.664 351.844C259.664 355.276 262.4 358.06 265.76 358.06Z" fill="white"/>
<g opacity="0.4">
<path opacity="0.6" d="M262.268 355.852C259.868 353.416 259.868 349.42 262.268 346.972C262.7 346.528 263.144 346.312 263.576 345.868C262.7 346.096 262.052 346.528 261.392 347.2C258.992 349.636 258.992 353.632 261.392 356.08C263.348 358.072 266.408 358.516 268.796 357.184C266.624 358.072 264.008 357.628 262.268 355.852Z" fill="url(#paint10_linear_616_1217)"/>
</g>
<path opacity="0.3" d="M267.932 350.08C268.652 350.08 269.24 349.48 269.24 348.748C269.24 348.016 268.652 347.416 267.932 347.416C267.212 347.416 266.624 348.016 266.624 348.748C266.624 349.48 267.212 350.08 267.932 350.08Z" fill="white"/>
<path opacity="0.2" d="M250.064 372.484C252.596 372.484 254.636 370.396 254.636 367.828C254.636 365.26 252.584 363.172 250.064 363.172C247.532 363.172 245.492 365.26 245.492 367.828C245.492 370.396 247.532 372.484 250.064 372.484Z" fill="white"/>
<g opacity="0.4">
<path opacity="0.6" d="M247.448 370.72C245.708 368.944 245.708 365.836 247.448 364.06C247.664 363.832 248.096 363.616 248.324 363.388C247.676 363.616 247.232 364.06 246.8 364.492C245.06 366.268 245.06 369.376 246.8 371.152C248.324 372.7 250.508 372.928 252.464 371.824C250.712 372.496 248.756 372.052 247.448 370.72Z" fill="url(#paint11_linear_616_1217)"/>
</g>
<path opacity="0.3" d="M251.588 366.268C252.068 366.268 252.464 365.872 252.464 365.38C252.464 364.888 252.068 364.492 251.588 364.492C251.108 364.492 250.712 364.888 250.712 365.38C250.712 365.872 251.108 366.268 251.588 366.268Z" fill="white"/>
<path opacity="0.2" d="M278.168 369.16C280.7 369.16 282.74 367.072 282.74 364.504C282.74 361.936 280.688 359.848 278.168 359.848C275.648 359.848 273.596 361.936 273.596 364.504C273.596 367.072 275.648 369.16 278.168 369.16Z" fill="white"/>
<g opacity="0.4">
<path opacity="0.6" d="M275.564 367.384C273.824 365.608 273.824 362.5 275.564 360.724C275.78 360.496 276.212 360.28 276.44 360.064C275.792 360.292 275.348 360.724 274.916 361.168C273.176 362.944 273.176 366.052 274.916 367.828C276.44 369.376 278.624 369.604 280.58 368.488C278.828 369.16 276.872 368.716 275.564 367.384Z" fill="url(#paint12_linear_616_1217)"/>
</g>
<path opacity="0.3" d="M279.692 362.944C280.172 362.944 280.568 362.548 280.568 362.056C280.568 361.564 280.172 361.168 279.692 361.168C279.212 361.168 278.816 361.564 278.816 362.056C278.828 362.548 279.212 362.944 279.692 362.944Z" fill="white"/>
<path opacity="0.2" d="M208.004 358.948C213.536 358.948 218.024 354.376 218.024 348.736C218.024 343.096 213.536 338.524 208.004 338.524C202.472 338.524 197.984 343.096 197.984 348.736C197.984 354.376 202.472 358.948 208.004 358.948Z" fill="white"/>
<g opacity="0.4">
<path opacity="0.6" d="M202.352 355.18C198.428 351.184 198.428 344.752 202.352 340.756C203 340.096 203.66 339.652 204.536 339.208C203.228 339.652 202.136 340.54 201.044 341.428C197.12 345.424 197.12 351.856 201.044 355.852C204.308 359.176 209.324 359.848 213.248 357.4C209.54 358.948 205.184 358.288 202.352 355.18Z" fill="url(#paint13_linear_616_1217)"/>
</g>
<path opacity="0.3" d="M211.496 345.64C212.696 345.64 213.68 344.644 213.68 343.42C213.68 342.196 212.708 341.2 211.496 341.2C210.296 341.2 209.312 342.196 209.312 343.42C209.312 344.644 210.284 345.64 211.496 345.64Z" fill="white"/>
<path opacity="0.2" d="M297.572 333.88C303.104 333.88 307.592 329.308 307.592 323.668C307.592 318.028 303.104 313.456 297.572 313.456C292.04 313.456 287.552 318.028 287.552 323.668C287.552 329.308 292.028 333.88 297.572 333.88Z" fill="white"/>
<g opacity="0.4">
<path opacity="0.6" d="M291.68 330.1C287.756 326.104 287.756 319.672 291.68 315.676C292.328 315.004 292.988 314.572 293.864 314.128C292.556 314.572 291.464 315.46 290.372 316.348C286.448 320.344 286.448 326.776 290.372 330.772C293.636 334.096 298.652 334.768 302.576 332.32C298.868 333.88 294.728 333.208 291.68 330.1Z" fill="url(#paint14_linear_616_1217)"/>
</g>
<path opacity="0.3" d="M301.052 320.56C302.252 320.56 303.236 319.564 303.236 318.34C303.236 317.116 302.264 316.12 301.052 316.12C299.852 316.12 298.868 317.116 298.868 318.34C298.868 319.564 299.84 320.56 301.052 320.56Z" fill="white"/>
</g>
<defs>
<radialGradient id="paint0_radial_616_1217" cx="0" cy="0" r="1" gradientUnits="userSpaceOnUse" gradientTransform="translate(376.832 140.834) scale(97.3906 99.1741)">
<stop stop-color="#FBEAF3" stop-opacity="0.6"/>
<stop offset="0.6807" stop-color="#A087BF"/>
<stop offset="1" stop-color="#17102E"/>
</radialGradient>
<radialGradient id="paint1_radial_616_1217" cx="0" cy="0" r="1" gradientUnits="userSpaceOnUse" gradientTransform="translate(322.649 183.115) scale(238.279 242.643)">
<stop stop-color="#FBEAF3" stop-opacity="0.6"/>
<stop offset="0.6807" stop-color="#A087BF"/>
<stop offset="1" stop-color="#17102E"/>
</radialGradient>
<linearGradient id="paint2_linear_616_1217" x1="221.805" y1="390.982" x2="262.193" y2="146.296" gradientUnits="userSpaceOnUse">
<stop stop-color="#9AD9E5"/>
<stop offset="0.6202" stop-color="white" stop-opacity="0"/>
</linearGradient>
<linearGradient id="paint3_linear_616_1217" x1="328.951" y1="185.634" x2="226.559" y2="277.892" gradientUnits="userSpaceOnUse">
<stop offset="0.2888" stop-color="white"/>
<stop offset="0.7796" stop-color="white" stop-opacity="0"/>
</linearGradient>
<linearGradient id="paint4_linear_616_1217" x1="126.076" y1="326.442" x2="357.706" y2="326.442" gradientUnits="userSpaceOnUse">
<stop stop-color="#384EA2"/>
<stop offset="0.9952" stop-color="#D54799"/>
</linearGradient>
<linearGradient id="paint5_linear_616_1217" x1="369.251" y1="278.564" x2="241.104" y2="397.491" gradientUnits="userSpaceOnUse">
<stop offset="0.2888" stop-color="white"/>
<stop offset="0.7796" stop-color="white" stop-opacity="0"/>
</linearGradient>
<linearGradient id="paint6_linear_616_1217" x1="126.076" y1="326.442" x2="249.844" y2="326.442" gradientUnits="userSpaceOnUse">
<stop stop-color="#2B2F82"/>
<stop offset="0.9952" stop-color="#72439A"/>
</linearGradient>
<linearGradient id="paint7_linear_616_1217" x1="126.329" y1="278.355" x2="357.494" y2="278.355" gradientUnits="userSpaceOnUse">
<stop stop-color="#2B2F82"/>
<stop offset="0.9952" stop-color="#A14298"/>
</linearGradient>
<linearGradient id="paint8_linear_616_1217" x1="354.005" y1="152.364" x2="336.95" y2="179.58" gradientUnits="userSpaceOnUse">
<stop offset="0.2888" stop-color="white"/>
<stop offset="0.7796" stop-color="white" stop-opacity="0"/>
</linearGradient>
<linearGradient id="paint9_linear_616_1217" x1="227.782" y1="355.01" x2="237.001" y2="355.01" gradientUnits="userSpaceOnUse">
<stop offset="0.2888" stop-color="white"/>
<stop offset="0.7796" stop-color="white" stop-opacity="0"/>
</linearGradient>
<linearGradient id="paint10_linear_616_1217" x1="259.567" y1="351.903" x2="268.786" y2="351.903" gradientUnits="userSpaceOnUse">
<stop offset="0.2888" stop-color="white"/>
<stop offset="0.7796" stop-color="white" stop-opacity="0"/>
</linearGradient>
<linearGradient id="paint11_linear_616_1217" x1="245.457" y1="367.956" x2="252.379" y2="367.956" gradientUnits="userSpaceOnUse">
<stop offset="0.2888" stop-color="white"/>
<stop offset="0.7796" stop-color="white" stop-opacity="0"/>
</linearGradient>
<linearGradient id="paint12_linear_616_1217" x1="273.475" y1="364.628" x2="280.396" y2="364.628" gradientUnits="userSpaceOnUse">
<stop offset="0.2888" stop-color="white"/>
<stop offset="0.7796" stop-color="white" stop-opacity="0"/>
</linearGradient>
<linearGradient id="paint13_linear_616_1217" x1="197.998" y1="349.033" x2="213.053" y2="349.033" gradientUnits="userSpaceOnUse">
<stop offset="0.2888" stop-color="white"/>
<stop offset="0.7796" stop-color="white" stop-opacity="0"/>
</linearGradient>
<linearGradient id="paint14_linear_616_1217" x1="287.415" y1="323.958" x2="302.471" y2="323.958" gradientUnits="userSpaceOnUse">
<stop offset="0.2888" stop-color="white"/>
<stop offset="0.7796" stop-color="white" stop-opacity="0"/>
</linearGradient>
<clipPath id="clip0_616_1217">
<rect width="500" height="500" fill="white"/>
</clipPath>
</defs>
</svg>
