<svg width="500" height="500" viewBox="0 0 500 500" fill="none" xmlns="http://www.w3.org/2000/svg">
<g clip-path="url(#clip0_616_1119)">
<rect x="11.5" y="11.5" width="477" height="477" rx="110.5" fill="#DBE68A" fill-opacity="0.2" stroke="#DBE68A" stroke-width="23"/>
<path d="M250 400C332.843 400 400 332.843 400 250C400 167.157 332.843 100 250 100C167.157 100 100 167.157 100 250C100 332.843 167.157 400 250 400Z" fill="#DBE68A"/>
<path d="M183.748 172.547H189.948L338.654 308.863V327.453H183.748V172.547Z" fill="#010101"/>
<path d="M301.016 262.483C305.275 254.083 307.675 244.576 307.675 234.505C307.675 200.278 279.932 172.547 245.717 172.547C233.728 172.547 222.539 175.959 213.056 181.853L301.016 262.483Z" fill="#010101"/>
</g>
<defs>
<clipPath id="clip0_616_1119">
<rect width="500" height="500" fill="white"/>
</clipPath>
</defs>
</svg>
