<svg width="500" height="500" viewBox="0 0 500 500" fill="none" xmlns="http://www.w3.org/2000/svg">
<g clip-path="url(#clip0_616_1056)">
<rect x="11.5" y="11.5" width="477" height="477" rx="110.5" fill="#FF931E" fill-opacity="0.2" stroke="#FF931E" stroke-width="23"/>
<path d="M250.076 175.373C275.308 175.373 295.763 154.919 295.763 129.687C295.763 104.455 275.308 84 250.076 84C224.844 84 204.389 104.455 204.389 129.687C204.389 154.919 224.844 175.373 250.076 175.373Z" fill="#FF931E"/>
<path d="M377.108 270.919C355.244 258.315 327.311 265.821 314.708 287.685C310.369 295.208 308.419 303.446 308.605 311.534C309.063 331.67 290.956 342.148 273.74 331.749C273.061 331.334 272.364 330.929 271.658 330.55C254.248 320.83 254.257 300.13 271.676 290.419C285.938 282.693 295.631 267.585 295.631 250.227C295.631 249.875 295.613 249.531 295.604 249.187L295.622 249.213C295.172 229.051 313.323 218.582 330.557 229.06C344.36 237.439 362.194 238.224 377.161 229.571C399.008 216.95 406.487 189 393.866 167.153C381.245 145.307 353.295 137.827 331.448 150.449C316.489 159.092 308.278 174.906 308.622 191.037C309.072 211.156 290.983 221.625 273.784 211.244C266.843 206.993 258.693 204.541 249.962 204.541C241.23 204.541 233.08 206.993 226.148 211.235C208.985 221.581 190.948 211.129 191.407 191.055C191.759 174.888 183.504 159.039 168.502 150.405C146.628 137.827 118.696 145.36 106.119 167.233C93.5419 189.106 101.074 217.038 122.947 229.615C137.897 238.215 155.678 237.412 169.454 229.06C186.644 218.626 204.751 229.086 204.292 249.195L204.31 249.169C204.31 249.522 204.284 249.875 204.284 250.236C204.284 267.602 213.968 282.702 228.238 290.428C245.666 300.148 245.657 320.874 228.221 330.576C227.515 330.955 226.827 331.361 226.148 331.775C208.985 342.103 190.957 331.643 191.416 311.569C191.61 303.446 189.643 295.164 185.277 287.615C172.629 265.777 144.679 258.333 122.841 270.972C100.959 283.61 93.5154 311.56 106.154 333.398C118.802 355.236 146.752 362.68 168.59 350.041C168.872 349.874 169.145 349.697 169.428 349.53L169.401 349.565C186.609 339.122 204.716 349.592 204.248 369.71L204.266 369.683C204.266 370.054 204.24 370.433 204.24 370.803C204.266 396.037 224.737 416.472 249.97 416.446C275.204 416.419 295.639 395.948 295.613 370.715C295.613 370.38 295.595 370.045 295.586 369.71L295.604 369.736C295.145 349.565 313.306 339.087 330.548 349.565L330.522 349.521C330.839 349.715 331.139 349.909 331.457 350.094C353.321 362.698 381.253 355.192 393.857 333.328C406.461 311.463 398.955 283.531 377.091 270.927L377.108 270.919Z" fill="#FF931E"/>
</g>
<defs>
<clipPath id="clip0_616_1056">
<rect width="500" height="500" fill="white"/>
</clipPath>
</defs>
</svg>
