<svg width="500" height="500" viewBox="0 0 500 500" fill="none" xmlns="http://www.w3.org/2000/svg">
<g clip-path="url(#clip0_616_1220)">
<rect x="11.5" y="11.5" width="477" height="477" rx="110.5" fill="#CB0766" fill-opacity="0.2" stroke="#CB0766" stroke-width="23"/>
<path d="M227.876 297.132C226.084 297.132 224.65 297.132 222.858 295.34L196.335 268.817C195.618 268.1 195.26 267.742 195.26 267.025C194.901 266.667 194.543 265.233 194.901 263.799C194.901 263.082 195.26 262.724 195.618 262.366C195.976 262.007 196.335 261.649 196.693 261.29C197.41 260.573 197.769 259.857 198.127 259.498C204.579 253.405 210.672 247.312 217.123 241.577C231.46 227.599 245.797 213.62 260.134 199.642C260.134 198.925 261.209 194.624 264.435 193.548C265.51 193.19 266.944 193.19 267.661 193.19C269.453 193.19 270.887 193.19 272.679 194.982L300.636 221.505C301.711 222.939 302.786 224.731 302.428 226.523C302.069 228.315 300.277 229.391 299.561 229.749C296.335 231.541 286.299 241.577 267.302 261.649C255.833 272.76 244.722 283.871 233.252 294.624C232.894 294.982 232.536 296.057 231.46 296.774C230.385 297.132 229.31 297.132 227.876 297.132Z" fill="#AF145B"/>
<path d="M302.638 164.158L248.158 111.47C239.914 105.018 229.878 100 218.409 100C206.939 100 195.47 105.018 187.226 113.262C184 115.054 184 116.487 184 118.28C184 120.072 184 121.505 185.792 123.297L259.986 194.265C261.778 196.057 263.211 196.057 263.211 197.491C279.699 215.77 281.491 241.935 266.437 260.215L302.638 225.448C310.882 218.996 315.9 207.168 315.9 195.699C315.9 184.229 310.882 172.401 302.638 164.158Z" fill="url(#paint0_linear_616_1220)"/>
<path d="M238.48 283.154C221.993 264.875 220.201 238.71 236.688 220.43L200.487 255.197C192.244 263.441 187.226 274.91 187.226 286.38C187.226 297.849 192.244 309.319 200.487 317.563L279.699 398.208C281.491 400 282.925 400 284.717 400C286.509 400 287.942 400 289.735 398.208C297.978 389.964 302.996 378.495 302.996 367.025C302.996 355.555 297.978 344.086 289.735 335.842L240.272 286.38C239.914 284.588 238.48 284.588 238.48 283.154Z" fill="url(#paint1_linear_616_1220)"/>
</g>
<defs>
<linearGradient id="paint0_linear_616_1220" x1="184" y1="180.107" x2="315.9" y2="180.107" gradientUnits="userSpaceOnUse">
<stop stop-color="#CB0766"/>
<stop offset="1" stop-color="#E04391"/>
</linearGradient>
<linearGradient id="paint1_linear_616_1220" x1="185.939" y1="310.215" x2="302.459" y2="310.215" gradientUnits="userSpaceOnUse">
<stop stop-color="#CB0766"/>
<stop offset="1" stop-color="#E04391"/>
</linearGradient>
<clipPath id="clip0_616_1220">
<rect width="500" height="500" fill="white"/>
</clipPath>
</defs>
</svg>
