<svg width="500" height="500" viewBox="0 0 500 500" fill="none" xmlns="http://www.w3.org/2000/svg">
<g clip-path="url(#clip0_341_627)">
<rect x="11.5" y="11.5" width="477" height="477" rx="110.5" fill="#EBC28E" fill-opacity="0.2" stroke="#EBC28E" stroke-width="23"/>
<path d="M378.182 302.364V128.182C377.818 113.636 366.182 102 351.636 102H170.545C131.273 102.727 100 134.727 100 174C100 187.091 103.636 198.727 109.091 208.545C113.818 216.909 121.091 224.545 128 230.364C130.182 232.182 129.091 231.454 135.273 235.091C143.636 240.182 153.455 242.727 153.455 242.727V346.727C153.818 351.818 154.182 356.545 155.636 360.909C159.636 375.454 169.818 386.727 183.636 392.182C189.454 394.363 196 395.818 202.909 396.182L347.273 396.909C376 396.909 399.636 373.636 399.636 344.545C399.636 327.454 391.273 311.818 378.182 302.364Z" fill="#FFEEDA"/>
<path d="M381.818 345.637C381.091 364.182 365.818 379.091 347.273 379.091L247.637 378.728C255.637 369.637 260.364 357.637 260.364 344.546C260.364 324.182 248.364 310 248.364 310H347.637C366.546 310 382.182 325.637 382.182 344.546L381.818 345.637Z" fill="#EBC28E"/>
<path d="M137.455 215.818C125.818 204.909 117.818 190.727 117.818 174V172.182C118.909 143.818 142.182 120.545 170.545 119.818H352C356.727 120.182 360.363 123.455 360.363 128.182V282C364.363 282.727 366.545 283.454 370.545 284.545C373.818 285.636 378.182 288.182 378.182 288.182V128.182C377.818 113.636 366.182 102 351.636 102H170.545C131.273 102.727 100 134.727 100 174C100 196.909 110.545 216.545 127.273 230C128.364 231.091 129.455 232.182 132.727 232.182C138.182 232.182 141.818 227.818 141.455 223.454C141.455 219.454 140 218 137.455 215.818Z" fill="#101010"/>
<path d="M347.272 292.182H205.09C195.636 292.182 187.999 299.818 187.999 309.636V330C188.363 339.455 196.363 347.455 205.817 347.455H216.363V330H205.817V310C205.817 310 208.363 310 211.636 310C229.454 310 242.908 326.727 242.908 344.545C242.908 360.545 228.363 380.545 204.363 379.091C182.908 377.636 171.272 358.727 171.272 344.545V171.091C171.272 163.455 164.727 156.909 157.09 156.909H142.908V174.727H153.454V344.909C152.727 379.455 178.181 396.909 204.363 396.909L347.636 397.273C376.363 397.273 399.999 374 399.999 344.909C399.635 315.818 376.363 292.182 347.272 292.182ZM381.817 345.636C381.09 364.182 365.817 379.091 347.272 379.091L247.636 378.727C255.636 369.636 260.363 357.636 260.363 344.545C260.363 324.182 248.363 310 248.363 310H347.636C366.545 310 382.181 325.636 382.181 344.545L381.817 345.636Z" fill="#101010"/>
<path d="M309.091 177.636H201.818V160.182H309.091C313.818 160.182 317.818 164.182 317.818 168.909C317.818 173.636 314.182 177.636 309.091 177.636Z" fill="#101010"/>
<path d="M309.091 261.272H201.818V243.454H309.091C313.818 243.454 317.818 247.454 317.818 252.181C317.818 257.272 314.182 261.272 309.091 261.272Z" fill="#101010"/>
<path d="M328 219.454H201.818V201.636H328C332.727 201.636 336.727 205.636 336.727 210.363C336.727 215.454 332.727 219.454 328 219.454Z" fill="#101010"/>
</g>
<defs>
<clipPath id="clip0_341_627">
<rect width="500" height="500" fill="white"/>
</clipPath>
</defs>
</svg>
