<svg width="500" height="500" viewBox="0 0 500 500" fill="none" xmlns="http://www.w3.org/2000/svg">
<g clip-path="url(#clip0_616_88)">
<rect x="11.5" y="11.5" width="477" height="477" rx="110.5" fill="#E81899" fill-opacity="0.2" stroke="#E81899" stroke-width="23"/>
<path d="M391.807 329.01L340.905 259.777C335.375 252.254 327.187 247.747 318.467 246.754C316.482 246.523 314.71 245.37 313.718 243.63C312.707 241.891 312.601 239.78 313.399 237.935C316.89 229.88 317.102 220.529 313.345 211.977L278.909 133.233C273.805 121.541 262.266 114 249.523 114C236.78 114 225.243 121.559 220.139 133.233L185.702 211.977C181.963 220.529 182.158 229.88 185.649 237.935C186.447 239.78 186.323 241.891 185.33 243.63C184.32 245.37 182.565 246.523 180.58 246.754C171.86 247.747 163.672 252.254 158.143 259.777L107.242 329.01C99.6915 339.284 98.9294 353.052 105.292 364.106C111.672 375.142 123.972 381.369 136.627 379.968L221.964 370.458C231.234 369.429 239.226 364.584 244.438 357.523C245.625 355.909 247.521 354.95 249.523 354.95C251.526 354.95 253.405 355.909 254.611 357.523C259.821 364.584 267.814 369.429 277.084 370.458L362.421 379.968C375.076 381.388 387.376 375.159 393.755 364.106C400.118 353.052 399.356 339.284 391.807 329.01ZM207.963 221.859L242.452 143.028C243.692 140.206 246.475 138.379 249.541 138.379C252.608 138.379 255.39 140.206 256.631 143.028L291.12 221.859C292.202 224.344 291.971 227.218 290.483 229.489C288.993 231.761 286.477 233.127 283.747 233.127H215.318C212.606 233.127 210.072 231.761 208.583 229.489C207.094 227.218 206.864 224.344 207.945 221.859H207.963ZM225.668 341.873C224.445 344.304 222.07 345.938 219.377 346.239L133.95 355.748C130.902 356.086 127.925 354.595 126.383 351.934C124.841 349.273 125.036 345.955 126.861 343.471L177.815 274.166C179.428 271.984 182.016 270.742 184.728 270.901C187.439 271.043 189.885 272.551 191.25 274.911L191.303 275L225.42 334.155L225.473 334.245C226.838 336.604 226.909 339.478 225.686 341.891L225.668 341.873ZM256.542 315.117C255.089 317.619 252.431 319.18 249.523 319.18C246.635 319.18 243.959 317.637 242.505 315.135L216.293 269.695C214.839 267.193 214.839 264.088 216.293 261.586C217.746 259.085 220.405 257.523 223.311 257.523H275.718C278.608 257.523 281.284 259.049 282.738 261.568C284.19 264.088 284.19 267.176 282.738 269.678L256.542 315.117ZM372.683 351.934C371.141 354.595 368.18 356.104 365.115 355.766L279.689 346.256C276.995 345.955 274.62 344.323 273.397 341.891C272.175 339.461 272.245 336.586 273.61 334.245L273.663 334.155L307.78 275L307.834 274.911C309.198 272.551 311.643 271.043 314.355 270.901C317.067 270.759 319.654 271.984 321.267 274.166L372.222 343.471C374.047 345.955 374.225 349.273 372.7 351.934H372.683Z" fill="#E81899"/>
</g>
<defs>
<clipPath id="clip0_616_88">
<rect width="500" height="500" fill="white"/>
</clipPath>
</defs>
</svg>
