<svg width="500" height="500" viewBox="0 0 500 500" fill="none" xmlns="http://www.w3.org/2000/svg">
<g clip-path="url(#clip0_616_1134)">
<rect x="11.5" y="11.5" width="477" height="477" rx="110.5" fill="#FF060A" fill-opacity="0.2" stroke="#FF060A" stroke-width="23"/>
<path d="M388.25 190.379C374.188 177.395 354.734 157.566 338.891 143.504L337.953 142.848C336.393 141.595 334.635 140.613 332.75 139.941C294.547 132.816 116.75 99.5821 113.281 100.004C112.309 100.14 111.38 100.493 110.562 101.035L109.672 101.738C108.575 102.852 107.742 104.198 107.234 105.676L107 106.285V109.613V110.129C127.016 165.863 206.047 348.441 221.609 391.285C222.547 394.191 224.328 399.723 227.656 400.004H228.406C230.188 400.004 237.781 389.973 237.781 389.973C237.781 389.973 373.531 225.348 387.266 207.816C389.043 205.657 390.613 203.334 391.953 200.879C392.295 198.958 392.134 196.981 391.485 195.141C390.836 193.301 389.721 191.66 388.25 190.379ZM272.609 209.551L330.547 161.504L364.531 192.816L272.609 209.551ZM250.109 206.41L150.359 124.66L311.75 154.426L250.109 206.41ZM259.109 227.832L361.203 211.379L244.484 352.004L259.109 227.832ZM136.812 132.816L241.766 221.879L226.578 352.098L136.812 132.816Z" fill="#FF060A"/>
</g>
<defs>
<clipPath id="clip0_616_1134">
<rect width="500" height="500" fill="white"/>
</clipPath>
</defs>
</svg>
