<svg width="500" height="500" viewBox="0 0 500 500" fill="none" xmlns="http://www.w3.org/2000/svg">
<g clip-path="url(#clip0_341_621)">
<path d="M11.5 122C11.5 60.9725 60.9725 11.5 122 11.5H378C439.027 11.5 488.5 60.9725 488.5 122V378C488.5 439.027 439.027 488.5 378 488.5H122C60.9725 488.5 11.5 439.027 11.5 378V122Z" fill="white" fill-opacity="0.2" stroke="white" stroke-width="23"/>
<path d="M250 100C220.333 100 191.332 108.797 166.665 125.28C141.997 141.762 122.771 165.189 111.418 192.597C100.065 220.006 97.0945 250.166 102.882 279.264C108.67 308.361 122.956 335.088 143.934 356.066C164.912 377.044 191.639 391.33 220.737 397.118C249.834 402.906 279.994 399.935 307.403 388.582C334.811 377.229 358.238 358.003 374.72 333.335C391.203 308.668 400 279.667 400 250C400 230.302 396.12 210.796 388.582 192.597C381.044 174.399 369.995 157.863 356.066 143.934C342.137 130.005 325.601 118.956 307.403 111.418C289.204 103.88 269.698 100 250 100ZM250 340C247.033 340 244.133 339.12 241.666 337.472C239.2 335.824 237.277 333.481 236.142 330.74C235.007 327.999 234.709 324.983 235.288 322.074C235.867 319.164 237.296 316.491 239.393 314.393C241.491 312.296 244.164 310.867 247.074 310.288C249.983 309.709 252.999 310.006 255.74 311.142C258.481 312.277 260.824 314.2 262.472 316.666C264.12 319.133 265 322.033 265 325C265 328.978 263.42 332.794 260.607 335.607C257.794 338.42 253.978 340 250 340ZM265 262.6V280C265 283.978 263.42 287.794 260.607 290.607C257.794 293.42 253.978 295 250 295C246.022 295 242.206 293.42 239.393 290.607C236.58 287.794 235 283.978 235 280V250C235 246.022 236.58 242.206 239.393 239.393C242.206 236.58 246.022 235 250 235C254.45 235 258.8 233.68 262.5 231.208C266.2 228.736 269.084 225.222 270.787 221.11C272.49 216.999 272.936 212.475 272.068 208.11C271.2 203.746 269.057 199.737 265.91 196.59C262.763 193.443 258.754 191.3 254.39 190.432C250.025 189.564 245.501 190.01 241.39 191.713C237.278 193.416 233.764 196.3 231.292 200C228.82 203.7 227.5 208.05 227.5 212.5C227.5 216.478 225.92 220.294 223.107 223.107C220.294 225.92 216.478 227.5 212.5 227.5C208.522 227.5 204.706 225.92 201.893 223.107C199.08 220.294 197.5 216.478 197.5 212.5C197.461 202.755 200.135 193.19 205.223 184.879C210.311 176.567 217.612 169.835 226.309 165.438C235.006 161.04 244.756 159.15 254.466 159.979C264.176 160.808 273.464 164.323 281.289 170.132C289.115 175.94 295.169 183.812 298.775 192.866C302.38 201.92 303.394 211.799 301.703 221.397C300.013 230.995 295.684 239.932 289.202 247.209C282.719 254.486 274.339 259.815 265 262.6Z" fill="white"/>
</g>
<defs>
<clipPath id="clip0_341_621">
<rect width="500" height="500" fill="white"/>
</clipPath>
</defs>
</svg>
